<svg width="581" height="610" viewBox="0 0 581 610" fill="none" xmlns="http://www.w3.org/2000/svg">
<path d="M27.5062 131.965L30.7661 133.245L29.4783 130.1L31.7968 127.505L28.2651 127.747L26.4376 124.874L25.538 128.158L22.0918 128.967L25.0722 130.764L24.7684 134.149L27.5062 131.965Z" fill="#E1FFF4" fill-opacity="0.24"/>
<path d="M286.725 98.073L290.583 99.6174L289.052 95.8418L291.786 92.7342L287.611 93.0157L285.443 89.5642L284.388 93.5014L280.316 94.4627L283.845 96.6265L283.494 100.686L286.725 98.073Z" fill="#E1FFF4" fill-opacity="0.21"/>
<path d="M188.816 142.611L193.57 144.551L191.674 139.829L195.031 135.954L189.892 136.294L187.213 131.975L185.926 136.891L180.915 138.081L185.265 140.795L184.846 145.866L188.816 142.611Z" fill="#E1FFF4" fill-opacity="0.51"/>
<path d="M456.547 57.7356L461.3 59.6763L459.405 54.9541L462.762 51.0788L457.623 51.4187L454.944 47.0995L453.656 52.0165L448.645 53.2061L452.996 55.92L452.576 60.991L456.547 57.7356Z" fill="#E1FFF4" fill-opacity="0.55"/>
<path d="M214.05 348.582L217.908 350.126L216.377 346.35L219.111 343.243L214.936 343.524L212.768 340.073L211.713 344.01L207.641 344.971L211.17 347.135L210.82 351.194L214.05 348.582Z" fill="#E1FFF4" fill-opacity="0.22"/>
<path d="M55.6555 402.574L59.5128 404.118L57.982 400.343L60.7159 397.235L56.5414 397.517L54.3732 394.065L53.3184 398.002L49.2464 398.964L52.7748 401.127L52.4246 405.186L55.6555 402.574Z" fill="#E1FFF4" fill-opacity="0.24"/>
<path d="M116.094 307.24L119.951 308.784L118.42 305.008L121.154 301.901L116.98 302.182L114.812 298.731L113.757 302.668L109.685 303.629L113.213 305.793L112.863 309.852L116.094 307.24Z" fill="#E1FFF4" fill-opacity="0.34"/>
<path d="M172.123 472.121L176.578 473.93L174.804 469.523L177.953 465.904L173.136 466.224L170.627 462.194L169.417 466.785L164.719 467.898L168.796 470.429L168.399 475.162L172.123 472.121Z" fill="#E1FFF4" fill-opacity="0.47"/>
<path d="M55.2562 249.121L60.0097 251.062L58.1142 246.34L61.4715 242.464L56.3326 242.804L53.6533 238.485L52.3659 243.402L47.3551 244.592L51.7054 247.306L51.2858 252.377L55.2562 249.121Z" fill="#E1FFF4" fill-opacity="0.49"/>
<path d="M171.939 570.755C209.822 540.95 231.379 566.526 255.402 547.622C279.424 528.717 264.118 499.521 264.118 499.521C264.118 499.521 238.87 478.144 214.85 497.055C190.83 515.967 209.819 540.944 171.939 570.755Z" fill="#43BBD6"/>
<mask id="mask0_5_5415" style="mask-type:luminance" maskUnits="userSpaceOnUse" x="171" y="489" width="98" height="82">
<path d="M171.939 570.755C209.822 540.95 231.379 566.526 255.402 547.622C279.424 528.717 264.118 499.521 264.118 499.521C264.118 499.521 238.87 478.144 214.85 497.055C190.83 515.967 209.819 540.944 171.939 570.755Z" fill="white"/>
</mask>
<g mask="url(#mask0_5_5415)">
<path d="M171.938 570.756L180.738 580.097L174.862 581.671L171.938 570.756Z" fill="#43BBD6"/>
<path d="M171.574 569.398L181.469 579.901L180.738 580.097L171.938 570.756L171.574 569.398Z" fill="#43BBD6"/>
<path d="M171.21 568.041L182.201 579.705L181.469 579.901L171.574 569.398L171.21 568.041Z" fill="#43BBD6"/>
<path d="M170.846 566.684L182.931 579.509L182.201 579.705L171.21 568.041L170.846 566.684Z" fill="#43BBD6"/>
<path d="M170.482 565.325L183.662 579.313L182.931 579.509L170.846 566.684L170.482 565.325Z" fill="#43BBD6"/>
<path d="M170.119 563.968L184.394 579.117L183.662 579.313L170.482 565.325L170.119 563.968Z" fill="#43BBD6"/>
<path d="M169.755 562.61L185.124 578.921L184.394 579.117L170.119 563.968L169.755 562.61Z" fill="#43BBD6"/>
<path d="M169.391 561.253L185.856 578.725L185.124 578.921L169.755 562.61L169.391 561.253Z" fill="#43BBD6"/>
<path d="M169.027 559.894L186.587 578.529L185.856 578.725L169.391 561.253L169.027 559.894Z" fill="#43BBD6"/>
<path d="M168.664 558.537L187.317 578.334L186.587 578.529L169.027 559.894L168.664 558.537Z" fill="#43BBD6"/>
<path d="M168.3 557.18L188.049 578.138L187.317 578.334L168.664 558.537L168.3 557.18Z" fill="#43BBD6"/>
<path d="M167.936 555.821L188.78 577.942L188.049 578.138L168.3 557.18L167.936 555.821Z" fill="#43BBD6"/>
<path d="M167.572 554.464L189.51 577.746L188.78 577.942L167.936 555.821L167.572 554.464Z" fill="#43BBD6"/>
<path d="M167.208 553.106L190.242 577.55L189.51 577.746L167.572 554.464L167.208 553.106Z" fill="#43BBD6"/>
<path d="M166.845 551.749L190.973 577.354L190.242 577.55L167.208 553.106L166.845 551.749Z" fill="#43BBD6"/>
<path d="M166.481 550.39L191.703 577.159L190.973 577.354L166.845 551.749L166.481 550.39Z" fill="#43BBD6"/>
<path d="M166.117 549.033L192.435 576.963L191.703 577.159L166.481 550.39L166.117 549.033Z" fill="#43BBD6"/>
<path d="M165.753 547.676L193.166 576.767L192.435 576.963L166.117 549.033L165.753 547.676Z" fill="#43BBD6"/>
<path d="M165.39 546.318L193.896 576.571L193.166 576.767L165.753 547.676L165.39 546.318Z" fill="#43BBD6"/>
<path d="M165.026 544.96L194.628 576.375L193.896 576.571L165.39 546.318L165.026 544.96Z" fill="#43BBD6"/>
<path d="M164.662 543.602L195.359 576.179L194.628 576.375L165.026 544.96L164.662 543.602Z" fill="#43BBD6"/>
<path d="M164.298 542.245L196.089 575.983L195.359 576.179L164.662 543.602L164.298 542.245Z" fill="#43BBD6"/>
<path d="M163.934 540.886L196.821 575.787L196.089 575.983L164.298 542.245L163.934 540.886Z" fill="#43BBD6"/>
<path d="M163.57 539.529L197.552 575.591L196.821 575.787L163.934 540.886L163.57 539.529Z" fill="#43BBD6"/>
<path d="M163.491 539.233L163.873 538.881L198.282 575.396L197.552 575.591L163.57 539.529L163.491 539.233Z" fill="#43BBD6"/>
<path d="M163.873 538.881L164.364 538.428L199.014 575.2L198.282 575.396L163.873 538.881Z" fill="#43BBD6"/>
<path d="M164.364 538.428L164.853 537.976L199.745 575.004L199.014 575.2L164.364 538.428Z" fill="#43BBD6"/>
<path d="M164.853 537.976L165.343 537.525L200.475 574.808L199.745 575.004L164.853 537.976Z" fill="#43BBD6"/>
<path d="M165.343 537.525L165.832 537.072L201.207 574.612L200.475 574.808L165.343 537.525Z" fill="#43BBD6"/>
<path d="M165.832 537.072L166.322 536.621L201.938 574.416L201.207 574.612L165.832 537.072Z" fill="#43BBD6"/>
<path d="M166.322 536.621L166.811 536.168L202.668 574.221L201.938 574.416L166.322 536.621Z" fill="#43BBD6"/>
<path d="M166.811 536.168L167.301 535.717L203.4 574.025L202.668 574.221L166.811 536.168Z" fill="#43BBD6"/>
<path d="M167.301 535.717L167.79 535.264L204.131 573.829L203.4 574.025L167.301 535.717Z" fill="#43BBD6"/>
<path d="M167.79 535.264L168.281 534.812L204.861 573.633L204.131 573.829L167.79 535.264Z" fill="#43BBD6"/>
<path d="M168.281 534.812L168.771 534.361L205.593 573.437L204.861 573.633L168.281 534.812Z" fill="#43BBD6"/>
<path d="M168.771 534.361L169.26 533.908L206.324 573.241L205.593 573.437L168.771 534.361Z" fill="#43BBD6"/>
<path d="M169.26 533.908L169.75 533.457L207.056 573.045L206.324 573.241L169.26 533.908Z" fill="#43BBD6"/>
<path d="M169.75 533.457L170.239 533.004L207.786 572.849L207.056 573.045L169.75 533.457Z" fill="#43BBD6"/>
<path d="M170.239 533.004L170.729 532.553L208.517 572.653L207.786 572.849L170.239 533.004Z" fill="#43BBD6"/>
<path d="M170.729 532.553L171.218 532.1L209.247 572.458L208.517 572.653L170.729 532.553Z" fill="#43BBD6"/>
<path d="M171.218 532.1L171.708 531.649L209.979 572.262L209.247 572.458L171.218 532.1Z" fill="#43BBD6"/>
<path d="M171.708 531.649L172.199 531.197L210.71 572.066L209.979 572.262L171.708 531.649Z" fill="#43BBD6"/>
<path d="M172.199 531.197L172.688 530.744L211.442 571.87L210.71 572.066L172.199 531.197Z" fill="#43BBD6"/>
<path d="M172.688 530.744L173.178 530.293L212.172 571.674L211.442 571.87L172.688 530.744Z" fill="#43BBD6"/>
<path d="M173.178 530.293L173.667 529.84L212.903 571.478L212.172 571.674L173.178 530.293Z" fill="#43BBD6"/>
<path d="M173.667 529.84L174.157 529.389L213.633 571.282L212.903 571.478L173.667 529.84Z" fill="#43BBD6"/>
<path d="M174.157 529.389L174.647 528.937L214.365 571.086L213.633 571.282L174.157 529.389Z" fill="#43BBD6"/>
<path d="M174.647 528.938L175.136 528.485L215.096 570.89L214.365 571.086L174.647 528.938Z" fill="#43BBD6"/>
<path d="M175.136 528.485L175.626 528.033L215.828 570.694L215.096 570.89L175.136 528.485Z" fill="#43BBD6"/>
<path d="M175.626 528.033L176.116 527.58L216.558 570.499L215.828 570.694L175.626 528.033Z" fill="#43BBD6"/>
<path d="M176.116 527.58L176.606 527.129L217.289 570.303L216.558 570.499L176.116 527.58Z" fill="#43BBD6"/>
<path d="M176.606 527.129L177.095 526.676L218.021 570.107L217.289 570.303L176.606 527.129Z" fill="#43BBD6"/>
<path d="M177.095 526.676L177.585 526.225L218.751 569.911L218.021 570.107L177.095 526.676Z" fill="#43BBD6"/>
<path d="M177.585 526.225L178.075 525.774L219.482 569.715L218.751 569.911L177.585 526.225Z" fill="#43BBD6"/>
<path d="M178.075 525.774L178.564 525.321L220.214 569.519L219.482 569.715L178.075 525.774Z" fill="#43BBD6"/>
<path d="M178.564 525.321L179.054 524.869L220.944 569.324L220.214 569.519L178.564 525.321Z" fill="#43BBD6"/>
<path d="M179.054 524.869L179.543 524.417L221.675 569.128L220.944 569.324L179.054 524.869Z" fill="#43BBD6"/>
<path d="M179.543 524.417L180.034 523.965L222.407 568.932L221.675 569.128L179.543 524.417Z" fill="#43BBD6"/>
<path d="M180.034 523.965L180.523 523.512L223.137 568.736L222.407 568.932L180.034 523.965Z" fill="#43BBD6"/>
<path d="M180.523 523.512L181.013 523.061L223.868 568.54L223.137 568.736L180.523 523.512Z" fill="#43BBD6"/>
<path d="M181.013 523.061L181.503 522.61L224.6 568.344L223.868 568.54L181.013 523.061Z" fill="#43BBD6"/>
<path d="M181.503 522.61L181.992 522.157L225.33 568.148L224.6 568.344L181.503 522.61Z" fill="#43BBD6"/>
<path d="M181.992 522.157L182.482 521.706L226.061 567.952L225.33 568.148L181.992 522.157Z" fill="#43BBD6"/>
<path d="M182.482 521.706L182.971 521.253L226.793 567.756L226.061 567.952L182.482 521.706Z" fill="#43BBD6"/>
<path d="M182.971 521.253L183.461 520.801L227.523 567.561L226.793 567.756L182.971 521.253Z" fill="#43BBD6"/>
<path d="M183.461 520.801L183.95 520.349L228.254 567.365L227.523 567.561L183.461 520.801Z" fill="#43BBD6"/>
<path d="M183.95 520.349L184.441 519.897L228.986 567.169L228.254 567.365L183.95 520.349Z" fill="#43BBD6"/>
<path d="M184.441 519.897L184.931 519.446L229.716 566.973L228.986 567.169L184.441 519.897Z" fill="#43BBD6"/>
<path d="M184.931 519.446L185.42 518.993L230.447 566.777L229.716 566.973L184.931 519.446Z" fill="#43BBD6"/>
<path d="M185.42 518.993L185.91 518.542L231.179 566.581L230.447 566.777L185.42 518.993Z" fill="#43BBD6"/>
<path d="M185.91 518.542L186.399 518.089L231.909 566.386L231.179 566.581L185.91 518.542Z" fill="#43BBD6"/>
<path d="M186.399 518.089L186.889 517.637L232.64 566.19L231.909 566.386L186.399 518.089Z" fill="#43BBD6"/>
<path d="M186.889 517.637L187.378 517.185L233.372 565.994L232.64 566.19L186.889 517.637Z" fill="#43BBD6"/>
<path d="M187.378 517.185L187.868 516.733L234.102 565.798L233.372 565.994L187.378 517.185Z" fill="#43BBD6"/>
<path d="M187.868 516.733L188.359 516.282L234.833 565.602L234.102 565.798L187.868 516.733Z" fill="#43BBD6"/>
<path d="M188.359 516.282L188.848 515.829L235.565 565.406L234.833 565.602L188.359 516.282Z" fill="#43BBD6"/>
<path d="M188.848 515.829L189.338 515.378L236.296 565.21L235.565 565.406L188.848 515.829Z" fill="#43BBD6"/>
<path d="M189.338 515.378L189.827 514.925L237.026 565.014L236.296 565.21L189.338 515.378Z" fill="#43BBD6"/>
<path d="M189.827 514.925L190.317 514.474L237.758 564.818L237.026 565.014L189.827 514.925Z" fill="#43BBD6"/>
<path d="M190.317 514.474L190.806 514.021L238.488 564.623L237.758 564.818L190.317 514.474Z" fill="#43BBD6"/>
<path d="M190.806 514.021L191.296 513.569L239.219 564.427L238.488 564.623L190.806 514.021Z" fill="#43BBD6"/>
<path d="M191.296 513.569L191.785 513.118L239.951 564.231L239.219 564.427L191.296 513.569Z" fill="#43BBD6"/>
<path d="M191.785 513.118L192.275 512.665L240.682 564.035L239.951 564.231L191.785 513.118Z" fill="#43BBD6"/>
<path d="M192.275 512.665L192.766 512.214L241.412 563.839L240.682 564.035L192.275 512.665Z" fill="#43BBD6"/>
<path d="M192.766 512.214L193.255 511.761L242.144 563.643L241.412 563.839L192.766 512.214Z" fill="#43BBD6"/>
<path d="M193.255 511.761L193.745 511.31L242.874 563.447L242.144 563.643L193.255 511.761Z" fill="#43BBD6"/>
<path d="M193.745 511.31L194.234 510.857L243.605 563.251L242.874 563.447L193.745 511.31Z" fill="#43BBD6"/>
<path d="M194.234 510.857L194.724 510.405L244.337 563.055L243.605 563.251L194.234 510.857Z" fill="#43BBD6"/>
<path d="M194.724 510.405L195.213 509.954L244.832 562.609L244.354 563.051L244.337 563.055L194.724 510.405Z" fill="#43BBD6"/>
<path d="M195.698 509.511L195.208 509.963L244.824 562.62L245.314 562.168L195.698 509.511Z" fill="#43BBD6"/>
<path d="M196.184 509.068L195.694 509.521L245.31 562.178L245.8 561.725L196.184 509.068Z" fill="#43BBD6"/>
<path d="M196.677 508.607L196.187 509.06L245.803 561.716L246.293 561.264L196.677 508.607Z" fill="#43BBD6"/>
<path d="M197.164 508.163L196.674 508.615L246.29 561.272L246.78 560.82L197.164 508.163Z" fill="#43BBD6"/>
<path d="M197.651 507.712L197.161 508.165L246.777 560.822L247.267 560.369L197.651 507.712Z" fill="#43BBD6"/>
<path d="M198.145 507.256L197.655 507.708L247.271 560.365L247.761 559.913L198.145 507.256Z" fill="#43BBD6"/>
<path d="M198.632 506.809L198.142 507.261L247.758 559.918L248.248 559.466L198.632 506.809Z" fill="#43BBD6"/>
<path d="M199.126 506.347L198.637 506.799L248.253 559.456L248.742 559.004L199.126 506.347Z" fill="#43BBD6"/>
<path d="M199.612 505.905L199.122 506.357L248.738 559.014L249.228 558.562L199.612 505.905Z" fill="#43BBD6"/>
<path d="M200.102 505.452L199.612 505.904L249.228 558.561L249.717 558.109L200.102 505.452Z" fill="#43BBD6"/>
<path d="M200.596 504.992L200.106 505.444L249.722 558.101L250.212 557.649L200.596 504.992Z" fill="#43BBD6"/>
<path d="M201.08 504.548L200.59 505L250.206 557.657L250.696 557.205L201.08 504.548Z" fill="#43BBD6"/>
<path d="M201.574 504.087L201.085 504.539L250.7 557.196L251.19 556.744L201.574 504.087Z" fill="#43BBD6"/>
<path d="M202.06 503.646L201.57 504.098L251.186 556.755L251.676 556.302L202.06 503.646Z" fill="#43BBD6"/>
<path d="M202.55 503.193L202.06 503.645L251.676 556.302L252.166 555.85L202.55 503.193Z" fill="#43BBD6"/>
<path d="M203.044 502.732L202.554 503.184L252.17 555.841L252.66 555.389L203.044 502.732Z" fill="#43BBD6"/>
<path d="M203.53 502.288L203.04 502.74L252.656 555.397L253.146 554.945L203.53 502.288Z" fill="#43BBD6"/>
<path d="M204.024 501.828L203.534 502.28L253.15 554.937L253.64 554.485L204.024 501.828Z" fill="#43BBD6"/>
<path d="M204.508 501.384L204.019 501.837L253.635 554.493L254.124 554.041L204.508 501.384Z" fill="#43BBD6"/>
<path d="M204.999 500.931L204.509 501.384L254.125 554.041L254.615 553.588L204.999 500.931Z" fill="#43BBD6"/>
<path d="M205.492 500.473L205.002 500.925L254.618 553.582L255.108 553.13L205.492 500.473Z" fill="#43BBD6"/>
<path d="M205.978 500.028L205.488 500.48L255.104 553.137L255.593 552.685L205.978 500.028Z" fill="#43BBD6"/>
<path d="M206.471 499.569L205.981 500.022L255.597 552.678L256.087 552.226L206.471 499.569Z" fill="#43BBD6"/>
<path d="M206.957 499.123L206.468 499.575L256.084 552.232L256.573 551.78L206.957 499.123Z" fill="#43BBD6"/>
<path d="M207.447 498.672L206.957 499.124L256.573 551.781L257.063 551.329L207.447 498.672Z" fill="#43BBD6"/>
<path d="M207.94 498.212L207.451 498.664L257.066 551.321L257.556 550.869L207.94 498.212Z" fill="#43BBD6"/>
<path d="M208.427 497.768L207.937 498.22L257.553 550.877L258.043 550.425L208.427 497.768Z" fill="#43BBD6"/>
<path d="M208.92 497.309L208.43 497.761L258.046 550.418L258.536 549.966L208.92 497.309Z" fill="#43BBD6"/>
<path d="M209.406 496.864L208.916 497.316L258.532 549.973L259.022 549.521L209.406 496.864Z" fill="#43BBD6"/>
<path d="M209.895 496.413L209.405 496.865L259.021 549.522L259.511 549.07L209.895 496.413Z" fill="#43BBD6"/>
<path d="M210.389 495.953L209.899 496.405L259.515 549.062L260.005 548.61L210.389 495.953Z" fill="#43BBD6"/>
<path d="M210.874 495.509L210.384 495.961L260 548.618L260.49 548.166L210.874 495.509Z" fill="#43BBD6"/>
<path d="M211.368 495.048L210.879 495.5L260.495 548.157L260.984 547.705L211.368 495.048Z" fill="#43BBD6"/>
<path d="M211.855 494.604L211.365 495.056L260.981 547.713L261.471 547.261L211.855 494.604Z" fill="#43BBD6"/>
<path d="M212.344 494.153L211.854 494.605L261.47 547.262L261.96 546.81L212.344 494.153Z" fill="#43BBD6"/>
<path d="M212.838 493.692L212.348 494.144L261.964 546.801L262.453 546.348L212.838 493.692Z" fill="#43BBD6"/>
<path d="M213.323 493.249L212.833 493.701L262.449 546.358L262.939 545.906L213.323 493.249Z" fill="#43BBD6"/>
<path d="M213.816 492.788L213.326 493.24L262.942 545.897L263.432 545.445L213.816 492.788Z" fill="#43BBD6"/>
<path d="M214.302 492.345L213.812 492.797L263.428 545.454L263.918 545.002L214.302 492.345Z" fill="#43BBD6"/>
<path d="M214.792 491.893L214.303 492.346L263.918 545.003L264.408 544.55L214.792 491.893Z" fill="#43BBD6"/>
<path d="M215.287 491.431L214.797 491.884L264.413 544.54L264.903 544.088L215.287 491.431Z" fill="#43BBD6"/>
<path d="M215.772 490.989L215.282 491.441L264.898 544.098L265.388 543.646L215.772 490.989Z" fill="#43BBD6"/>
<path d="M216.266 490.528L215.776 490.98L265.392 543.637L265.882 543.185L216.266 490.528Z" fill="#43BBD6"/>
<path d="M216.751 490.085L216.261 490.537L265.877 543.194L266.367 542.742L216.751 490.085Z" fill="#43BBD6"/>
<path d="M217.241 489.632L216.751 490.084L266.367 542.741L266.857 542.289L217.241 489.632Z" fill="#43BBD6"/>
<path d="M217.734 489.173L217.244 489.625L266.86 542.282L267.35 541.83L217.734 489.173Z" fill="#43BBD6"/>
<path d="M218.221 488.73L217.731 489.182L267.347 541.839L267.836 541.387L218.221 488.73Z" fill="#43BBD6"/>
<path d="M218.714 488.269L218.224 488.721L267.84 541.378L268.33 540.926L218.714 488.269Z" fill="#43BBD6"/>
<path d="M219.2 487.825L218.711 488.277L268.326 540.934L268.816 540.482L219.2 487.825Z" fill="#43BBD6"/>
<path d="M219.69 487.372L219.2 487.824L268.816 540.481L269.306 540.029L219.69 487.372Z" fill="#43BBD6"/>
<path d="M220.183 486.913L219.693 487.365L269.309 540.022L269.799 539.57L220.183 486.913Z" fill="#43BBD6"/>
<path d="M220.669 486.469L220.179 486.921L269.795 539.578L270.285 539.125L220.669 486.469Z" fill="#43BBD6"/>
<path d="M221.162 486.009L220.672 486.461L270.288 539.118L270.778 538.666L221.162 486.009Z" fill="#43BBD6"/>
<path d="M221.649 485.566L221.159 486.018L270.775 538.675L271.265 538.223L221.649 485.566Z" fill="#43BBD6"/>
<path d="M222.142 485.105L221.652 485.557L271.268 538.214L271.758 537.762L222.142 485.105Z" fill="#43BBD6"/>
<path d="M222.627 484.662L222.138 485.114L271.754 537.771L272.243 537.319L222.627 484.662Z" fill="#43BBD6"/>
<path d="M223.117 484.209L222.627 484.662L272.243 537.318L272.733 536.866L223.117 484.209Z" fill="#43BBD6"/>
<path d="M223.611 483.749L223.121 484.201L272.737 536.858L273.227 536.406L223.611 483.749Z" fill="#43BBD6"/>
<path d="M224.097 483.305L223.607 483.757L273.223 536.414L273.713 535.962L224.097 483.305Z" fill="#43BBD6"/>
<path d="M224.59 482.845L224.1 483.297L273.716 535.954L274.206 535.502L224.59 482.845Z" fill="#43BBD6"/>
<path d="M225.077 482.402L224.587 482.854L274.203 535.511L274.693 535.059L225.077 482.402Z" fill="#43BBD6"/>
<path d="M225.566 481.949L225.077 482.401L274.692 535.058L275.182 534.606L225.566 481.949Z" fill="#43BBD6"/>
<path d="M225.574 481.93L225.903 481.628L226.142 481.564L275.681 534.134L275.192 534.586L225.574 481.93Z" fill="#43BBD6"/>
<path d="M226.874 481.368L276.171 533.682L275.681 534.134L226.142 481.564L226.874 481.368Z" fill="#43BBD6"/>
<path d="M227.605 481.172L276.66 533.23L276.171 533.682L226.874 481.368L227.605 481.172Z" fill="#43BBD6"/>
<path d="M228.335 480.976L277.151 532.778L276.66 533.23L227.605 481.172L228.335 480.976Z" fill="#43BBD6"/>
<path d="M229.067 480.78L277.641 532.327L277.151 532.778L228.335 480.976L229.067 480.78Z" fill="#43BBD6"/>
<path d="M229.798 480.584L278.13 531.874L277.641 532.327L229.067 480.78L229.798 480.584Z" fill="#43BBD6"/>
<path d="M230.53 480.388L278.62 531.423L278.13 531.874L229.798 480.584L230.53 480.388Z" fill="#43BBD6"/>
<path d="M231.26 480.192L279.109 530.97L278.62 531.423L230.53 480.388L231.26 480.192Z" fill="#43BBD6"/>
<path d="M231.991 479.996L279.599 530.518L279.109 530.97L231.26 480.192L231.991 479.996Z" fill="#43BBD6"/>
<path d="M232.723 479.8L279.663 529.615L279.844 530.292L279.599 530.518L231.991 479.996L232.723 479.8Z" fill="#43BBD6"/>
<path d="M233.453 479.605L279.299 528.257L279.663 529.615L232.723 479.8L233.453 479.605Z" fill="#43BBD6"/>
<path d="M234.184 479.409L278.935 526.899L279.299 528.257L233.453 479.605L234.184 479.409Z" fill="#43BBD6"/>
<path d="M234.914 479.213L278.571 525.542L278.935 526.899L234.184 479.409L234.914 479.213Z" fill="#43BBD6"/>
<path d="M235.646 479.017L278.208 524.185L278.571 525.542L234.914 479.213L235.646 479.017Z" fill="#43BBD6"/>
<path d="M236.377 478.821L277.844 522.826L278.208 524.185L235.646 479.017L236.377 478.821Z" fill="#43BBD6"/>
<path d="M237.107 478.626L277.48 521.469L277.844 522.826L236.377 478.821L237.107 478.626Z" fill="#43BBD6"/>
<path d="M237.839 478.43L277.116 520.111L277.48 521.469L237.107 478.626L237.839 478.43Z" fill="#43BBD6"/>
<path d="M238.57 478.234L276.752 518.753L277.116 520.111L237.839 478.43L238.57 478.234Z" fill="#43BBD6"/>
<path d="M239.302 478.038L276.389 517.395L276.752 518.753L238.57 478.234L239.302 478.038Z" fill="#43BBD6"/>
<path d="M240.032 477.842L276.025 516.038L276.389 517.395L239.302 478.038L240.032 477.842Z" fill="#43BBD6"/>
<path d="M240.763 477.646L275.661 514.681L276.025 516.038L240.032 477.842L240.763 477.646Z" fill="#43BBD6"/>
<path d="M241.495 477.45L275.297 513.322L275.661 514.681L240.763 477.646L241.495 477.45Z" fill="#43BBD6"/>
<path d="M242.225 477.254L274.933 511.965L275.297 513.322L241.495 477.45L242.225 477.254Z" fill="#43BBD6"/>
<path d="M242.956 477.058L274.57 510.607L274.933 511.965L242.225 477.254L242.956 477.058Z" fill="#43BBD6"/>
<path d="M274.57 510.607L242.956 477.058L264.065 471.402L274.57 510.607Z" fill="#43BBD6"/>
</g>
<g opacity="0.5">
<path d="M190.191 559.757C205.422 537.526 197.16 518.536 216.356 503.431C240.379 484.527 265.623 505.898 265.623 505.898C265.623 505.898 267.017 508.56 268.304 512.796C267.005 505.023 264.124 499.52 264.124 499.52C264.124 499.52 238.876 478.143 214.856 497.054C190.835 515.965 209.819 540.944 171.939 570.755C178.477 565.61 184.529 562.115 190.191 559.757Z" fill="#E6E6E6"/>
</g>
<g opacity="0.3">
<path d="M268.918 519.427C267.084 525.238 263.471 531.074 257.004 536.169C237.136 551.806 218.952 537.011 191.825 548.293C187.911 555.434 181.889 562.931 171.939 570.761C209.822 540.956 231.38 566.532 255.402 547.628C266.219 539.108 269.06 528.509 268.918 519.427Z" fill="#196899"/>
</g>
<path d="M243.128 556.441C236.445 558.231 229.722 558.122 222.77 558.009C208.704 557.782 192.762 557.524 172.348 573.588C172.103 573.789 171.819 573.94 171.515 574.032C171.21 574.124 170.891 574.155 170.575 574.123C170.259 574.091 169.953 573.997 169.675 573.847C169.397 573.697 169.152 573.493 168.955 573.247C168.759 573.002 168.613 572.719 168.529 572.417C168.444 572.115 168.421 571.798 168.461 571.486C168.501 571.174 168.604 570.873 168.763 570.6C168.923 570.327 169.135 570.087 169.388 569.896C189.831 553.809 193.527 538.789 196.798 525.536C199.514 514.511 202.081 504.097 213.375 495.208C223.858 486.958 236.262 484.795 249.24 488.951C258.894 492.039 265.399 497.493 265.678 497.723C265.909 497.918 266.1 498.157 266.239 498.424C266.405 498.739 270.297 506.253 271.145 516.27C272.291 529.741 267.356 541.22 256.875 549.469C252.275 553.092 247.71 555.213 243.128 556.441ZM196.653 555.594C206.276 553.015 214.865 553.154 222.871 553.286C234.175 553.469 243.939 553.626 253.914 545.778C274.654 529.458 263.843 504.5 262.194 501.024C259.017 498.495 237.254 482.432 216.331 498.901C206.326 506.774 204.059 515.975 201.433 526.629C198.994 536.528 196.324 547.355 187.282 558.904C190.315 557.561 193.449 556.454 196.653 555.594Z" fill="#196899"/>
<path d="M367.262 325.165C367.262 325.165 400.598 329.577 407.745 335.908C414.892 342.239 396.295 347.428 396.295 347.428" fill="#E6E6E6"/>
<path d="M397.002 350.067C396.591 350.177 396.16 350.191 395.744 350.109C395.327 350.027 394.936 349.852 394.601 349.595L365.567 327.328C365.089 326.962 364.748 326.449 364.596 325.869C364.444 325.29 364.49 324.675 364.727 324.122C364.964 323.568 365.378 323.106 365.906 322.807C366.433 322.509 367.045 322.39 367.645 322.47C371.143 322.932 402.037 327.185 409.6 333.88C412.254 336.232 412.37 338.588 411.991 340.153C410.627 345.855 400.202 349.175 397.04 350.057L397.002 350.067ZM377.456 329.531L396.877 344.429C401.8 342.86 406.278 340.376 406.62 338.94C406.653 338.803 406.411 338.414 405.905 337.96C402.321 334.778 389.122 331.608 377.455 329.525L377.456 329.531Z" fill="#196899"/>
<path d="M223.83 293.63C214.489 305.378 214.815 349.313 224.076 373.077C233.336 396.841 277.648 386.926 302.494 379.411C327.339 371.896 312.26 315.962 307.916 301.06C301.131 277.794 237.674 276.222 223.83 293.63Z" fill="#E6E6E6"/>
<g opacity="0.25">
<path d="M302.494 379.411C277.645 386.921 233.334 396.825 224.07 373.067C222.79 369.721 221.731 366.297 220.897 362.813C229.258 366.334 237.62 358.967 237.021 352.09C233.325 309.602 244.456 289.942 250.426 282.629C273.808 279.708 303.4 285.582 307.91 301.067C312.264 315.967 327.344 371.908 302.494 379.411Z" fill="#196899"/>
</g>
<path d="M294.503 384.53C264.22 392.644 230.075 396.065 221.503 374.067C212.546 351.08 210.961 305.419 221.664 291.954C231.159 280.013 259.603 276.875 280.514 280.818C297.141 283.957 307.81 290.869 310.559 300.296C318.517 327.593 328.153 374.499 303.28 382.025C300.411 382.892 297.471 383.735 294.503 384.53ZM241.147 287.129C234.254 288.975 228.806 291.775 225.999 295.304C217.372 306.153 217.739 349.203 226.653 372.078C234.97 393.416 277.251 384.2 301.714 376.809C323.393 370.255 309.922 317.765 305.276 301.834C303.159 294.572 293.75 288.863 279.462 286.17C266.184 283.669 251.905 284.246 241.147 287.129Z" fill="#196899"/>
<path d="M237.3 334.051L225.004 332.652C224.349 332.577 223.684 332.642 223.054 332.84C222.425 333.038 221.844 333.367 221.351 333.803C220.857 334.24 220.463 334.774 220.193 335.371C219.923 335.969 219.785 336.615 219.786 337.268C219.835 346.796 221.18 366.21 231.261 367.557C243.481 369.197 244.021 355.623 241.343 337.905C241.19 336.911 240.712 335.996 239.981 335.3C239.251 334.604 238.309 334.166 237.3 334.051Z" fill="#E6E6E6"/>
<g opacity="0.25">
<path d="M241.311 337.882C244.032 355.596 243.522 369.168 231.301 367.559C226.282 366.905 223.415 361.761 221.8 355.588C223.19 357.107 224.87 358.12 226.913 358.387C237.852 359.823 239.413 349.095 237.655 334.112C238.585 334.289 239.436 334.746 240.09 335.421C240.744 336.096 241.171 336.955 241.311 337.882Z" fill="#196899"/>
</g>
<path d="M236.446 369.8C234.817 370.237 232.981 370.323 230.951 370.056C219.783 368.59 217.314 351.451 217.207 337.332C217.201 336.322 217.412 335.32 217.826 334.394C218.24 333.468 218.848 332.638 219.61 331.96C220.372 331.282 221.27 330.772 222.244 330.462C223.219 330.153 224.247 330.051 225.261 330.165L237.561 331.537C239.123 331.713 240.582 332.389 241.714 333.464C242.845 334.538 243.589 335.952 243.829 337.489C246.327 353.765 245.47 362.647 240.961 367.19C239.721 368.448 238.16 369.351 236.446 369.8ZM223.865 335.229C223.416 335.352 223.018 335.618 222.735 335.985C222.452 336.353 222.299 336.802 222.3 337.263C222.395 350.122 224.901 364.177 231.65 365.062C234.215 365.399 236.076 364.944 237.338 363.672C241.976 359.004 239.58 343.401 238.793 338.275C238.722 337.827 238.504 337.415 238.173 337.102C237.842 336.789 237.415 336.593 236.959 336.544L224.66 335.171C224.394 335.141 224.124 335.161 223.865 335.229Z" fill="#196899"/>
<path d="M222.216 294.121L236.921 296.583C241.824 297.439 246.71 298.278 251.623 299.289C251.969 299.36 252.274 299.56 252.474 299.849C252.674 300.137 252.754 300.491 252.696 300.838C252.638 301.184 252.448 301.496 252.165 301.709C251.882 301.921 251.527 302.018 251.175 301.979L251.15 301.977C246.272 301.429 241.312 301.04 236.375 300.639L221.538 299.535L221.512 299.533C220.818 299.434 220.19 299.079 219.754 298.538C219.318 297.997 219.107 297.311 219.165 296.619C219.222 295.927 219.543 295.281 220.062 294.811C220.582 294.342 221.261 294.084 221.962 294.09C222.041 294.099 222.134 294.108 222.216 294.121Z" fill="#196899"/>
<path d="M421.427 232.256C421.007 247.974 395.416 283.728 348.693 297.692C344.043 299.085 339.321 300.223 334.548 301.101L325.597 284.505L318.433 271.222C318.433 271.222 325.395 267.946 334.68 262.646C342.024 258.465 350.82 253.022 358.802 246.935C366.327 241.197 373.136 234.884 377.295 228.518C377.295 228.518 373.686 213.851 377.478 211.244C382.104 208.058 388.642 217.303 388.642 217.303C388.642 217.303 397.101 202.371 404.192 201.696C414.738 200.689 421.896 215.017 421.427 232.256Z" fill="#E6E6E6"/>
<g opacity="0.35">
<path d="M420.356 219.785C421.198 223.885 421.557 228.069 421.427 232.256C420.964 249.492 390.233 290.831 334.547 301.099L318.433 271.222C318.433 271.222 320.594 270.205 324.11 268.389L337.482 282.929C386.105 284.265 417.36 238.194 420.356 219.785Z" fill="#196899"/>
</g>
<path d="M345.707 301.374C342.254 302.3 338.7 303.103 335.045 303.785C334.688 303.853 334.321 303.852 333.966 303.78C333.61 303.708 333.273 303.567 332.973 303.365C332.674 303.163 332.418 302.904 332.221 302.604C332.024 302.303 331.889 301.966 331.824 301.613C331.759 301.26 331.766 300.897 331.843 300.545C331.921 300.193 332.068 299.86 332.276 299.564C332.484 299.268 332.749 299.015 333.055 298.82C333.362 298.625 333.704 298.492 334.062 298.428C388.979 288.298 418.261 247.417 418.674 232.202C418.966 221.341 415.992 211.404 411.091 206.885C409.067 205.017 406.831 204.185 404.446 204.411C400.561 204.782 394.27 212.945 391.049 218.63L388.9 222.425L386.392 218.878C384.376 216.043 380.555 212.551 379.088 213.456C378.018 214.74 378.437 221.571 379.979 227.86L380.258 228.999L379.612 229.989C365.188 252.041 321.468 272.818 319.612 273.685C318.95 273.996 318.193 274.036 317.506 273.795C316.818 273.554 316.258 273.052 315.947 272.4C315.636 271.747 315.601 270.998 315.849 270.317C316.097 269.635 316.607 269.077 317.269 268.766C317.702 268.562 360.094 248.424 374.344 228.01C373.107 222.559 371.441 212.111 375.919 209.022C380.464 205.886 385.37 209.573 388.308 212.626C391.547 207.665 397.728 199.588 403.954 198.994C407.915 198.614 411.687 199.964 414.865 202.894C420.951 208.509 424.517 219.786 424.183 232.32C423.706 249.868 395.74 287.965 345.707 301.374Z" fill="#196899"/>
<path d="M400.831 350.904C400.831 350.904 341.652 393.748 318.038 398.144C294.424 402.54 268.553 405.596 255.578 362.632C247.517 335.923 253.904 305.807 259.9 286.849C263.549 275.3 267.05 267.884 267.05 267.884L331.563 254.038C331.563 254.038 332.699 257.285 334.684 262.645C335.923 265.992 337.497 270.16 339.337 274.867C341.977 281.63 345.159 289.511 348.693 297.692C354.106 310.225 360.341 323.457 366.678 334.428C369.407 339.18 391.516 334.757 400.831 350.904Z" fill="#E6E6E6"/>
<path d="M342.559 280.534C346.995 287.564 350.437 294.951 353.892 302.327C357.348 309.704 360.691 317.111 364.366 324.343C365.291 326.147 366.241 327.935 367.203 329.716L368.668 332.368L369.038 333.03L369.061 333.07L369.059 333.062L369.054 333.044C369.051 333.033 369.045 333.022 369.037 333.014C369.027 333.007 369.017 333.002 369.005 332.999C369.014 332.999 369.022 333 369.029 333.004C369.045 333.01 369.034 333.022 369.06 333.039C369.103 333.06 369.145 333.084 369.185 333.111C369.301 333.181 369.422 333.242 369.547 333.294C370.152 333.559 371.058 333.783 371.983 333.982C372.907 334.181 373.903 334.341 374.913 334.504C376.931 334.828 379.027 335.153 381.129 335.583C385.328 336.435 389.642 337.696 393.585 339.988C395.575 341.13 397.407 342.521 399.036 344.126C400.665 345.747 402.072 347.572 403.222 349.556L404.454 351.675L402.444 353.115C393.018 359.865 383.477 366.339 373.757 372.624C364.037 378.909 354.156 384.948 343.88 390.441C338.731 393.169 333.5 395.788 327.952 397.955C325.183 399.042 322.345 400.03 319.265 400.672C318.48 400.862 317.795 400.968 317.077 401.11L314.927 401.492C313.486 401.743 312.043 401.985 310.592 402.195C304.79 403.05 298.792 403.6 292.713 403.07C289.646 402.814 286.617 402.232 283.679 401.336C280.706 400.416 277.866 399.126 275.226 397.496C272.612 395.858 270.209 393.911 268.07 391.699C265.951 389.534 264.055 387.166 262.407 384.631L261.78 383.697L261.208 382.737L260.067 380.809L259.029 378.841L258.513 377.855L258.043 376.853L257.108 374.847C256.809 374.174 256.541 373.491 256.261 372.812C255.677 371.46 255.18 370.084 254.683 368.707C252.679 363.193 251.207 357.5 250.289 351.705C249.397 345.93 248.975 340.09 249.029 334.242C249.094 322.579 250.818 311.03 253.47 299.758C254.795 294.121 256.114 288.464 258.093 283.005C260.073 277.546 262.457 272.22 266.213 267.517C266.343 267.354 266.523 267.238 266.727 267.187C266.93 267.136 267.144 267.153 267.335 267.236C267.527 267.319 267.684 267.463 267.783 267.644C267.883 267.826 267.917 268.036 267.883 268.24L267.876 268.278C266.903 273.999 265.288 279.394 263.622 284.778C262.011 290.171 260.14 295.497 258.846 300.978C256.244 311.918 254.604 323.093 254.538 334.243C254.487 339.798 254.887 345.346 255.733 350.833C256.598 356.295 257.985 361.661 259.876 366.857C260.347 368.16 260.816 369.463 261.365 370.726C261.632 371.36 261.883 372.005 262.162 372.632L263.034 374.497L263.468 375.43L263.945 376.337L264.901 378.149L265.939 379.902L266.46 380.778L267.026 381.618C268.484 383.868 270.164 385.969 272.043 387.889C273.877 389.788 275.937 391.46 278.179 392.869C282.65 395.651 287.84 397.172 293.241 397.629C298.642 398.086 304.229 397.619 309.811 396.792C311.207 396.591 312.607 396.356 314.01 396.114L316.118 395.738C316.813 395.607 317.559 395.488 318.171 395.337C318.816 395.176 319.459 395.078 320.107 394.87L322.064 394.297C323.367 393.842 324.673 393.416 325.97 392.883C331.171 390.855 336.272 388.308 341.3 385.648C351.353 380.274 361.139 374.278 370.776 368.071C380.413 361.865 389.923 355.387 399.215 348.731L398.439 352.289C396.613 349.138 393.975 346.524 390.792 344.712C387.595 342.851 383.878 341.725 379.997 340.941C378.052 340.542 376.061 340.233 373.997 339.901C372.967 339.731 371.92 339.565 370.83 339.334C369.74 339.103 368.617 338.856 367.324 338.309C366.974 338.161 366.635 337.988 366.311 337.792L365.785 337.453C365.597 337.316 365.411 337.145 365.232 336.985C364.891 336.723 364.487 336.127 364.258 335.775L363.872 335.099L362.329 332.399C361.318 330.585 360.325 328.777 359.361 326.95C357.42 323.301 355.516 319.641 353.711 315.932C351.906 312.222 350.216 308.47 348.6 304.687C345.391 297.111 342.512 289.395 340.857 281.234C340.815 281.022 340.85 280.802 340.954 280.612C341.059 280.421 341.228 280.273 341.431 280.193C341.634 280.112 341.859 280.104 342.066 280.17C342.274 280.237 342.45 280.373 342.566 280.555L342.559 280.534Z" fill="#196899"/>
<path d="M304.238 518.671L293.303 523.478C290.874 524.546 288.202 524.946 285.57 524.634C282.938 524.323 280.445 523.312 278.355 521.709C265.683 511.98 255.965 498.99 250.253 484.146C249.311 481.699 249.059 479.042 249.522 476.456C249.985 473.87 251.146 471.452 252.883 469.458L260.704 460.48" fill="#43BBD6"/>
<g opacity="0.6">
<path d="M264.462 466.396L256.72 475.285C254.799 477.489 253.515 480.163 253.004 483.023C252.492 485.882 252.772 488.821 253.815 491.526C254.632 493.652 255.525 495.746 256.494 497.806C254.215 493.874 252.253 489.77 250.624 485.531C249.684 483.084 249.432 480.427 249.895 477.842C250.358 475.256 251.519 472.838 253.254 470.844L261.077 461.868L264.462 466.396Z" fill="#E6E6E6"/>
</g>
<g opacity="0.35">
<path d="M263.721 505.663C267.288 509.634 271.217 513.272 275.459 516.531C277.548 518.135 280.041 519.147 282.673 519.458C285.305 519.769 287.977 519.369 290.406 518.298L300.607 513.813L260.706 460.477L259.037 462.394L288.618 501.931L277.676 506.743C275.436 507.729 272.986 508.146 270.549 507.957C268.111 507.768 265.764 506.98 263.721 505.663ZM284.981 497.077L259.033 462.396L259.559 461.79L285.719 496.753L284.981 497.077Z" fill="#196899"/>
</g>
<path d="M284.151 435.642C275.145 425.755 250.754 416.016 217.492 451.779C217.395 451.883 217.332 452.013 217.311 452.153C217.291 452.292 217.313 452.434 217.375 452.561C217.437 452.687 217.537 452.792 217.66 452.861C217.784 452.931 217.926 452.961 218.068 452.949C225.034 452.338 257.738 449.218 267.773 463.753" fill="#43BBD6"/>
<g opacity="0.6">
<path d="M224.7 451.749C221.668 451.912 219.265 452.133 217.883 452.253C217.741 452.265 217.599 452.235 217.476 452.166C217.352 452.097 217.253 451.992 217.19 451.866C217.128 451.74 217.106 451.598 217.127 451.459C217.147 451.32 217.21 451.189 217.306 451.085C250.57 415.321 274.96 425.065 283.966 434.948L282.192 437.992C271.904 430.269 251.492 426.18 224.7 451.749Z" fill="#E6E6E6"/>
</g>
<path d="M268.479 466.387C267.927 466.534 267.344 466.509 266.81 466.315C266.275 466.121 265.816 465.767 265.495 465.303C262.141 460.442 251.591 452.725 218.624 455.634L218.295 455.664C217.6 455.724 216.903 455.576 216.297 455.238C215.692 454.9 215.204 454.388 214.899 453.77C214.594 453.151 214.485 452.455 214.587 451.771C214.689 451.088 214.997 450.45 215.471 449.941C231.64 432.554 247.442 423.751 262.435 423.78C275.665 423.808 283.464 430.801 286.205 433.81C286.693 434.346 286.944 435.052 286.904 435.774C286.864 436.496 286.535 437.175 285.991 437.66C285.447 438.146 284.731 438.399 284.002 438.364C283.272 438.329 282.588 438.008 282.101 437.473C279.85 435.001 273.415 429.252 262.391 429.231C250.285 429.208 236.802 436.311 223.178 449.83C253.432 448.004 265.388 455.438 270.053 462.208C270.301 462.567 270.457 462.98 270.51 463.412C270.562 463.844 270.509 464.284 270.355 464.693C270.201 465.102 269.951 465.469 269.624 465.764C269.298 466.058 268.906 466.272 268.48 466.386L268.479 466.387Z" fill="#196899"/>
<path d="M334.19 502.527C341.119 513.939 343.884 540.498 299.693 561.652C299.565 561.713 299.421 561.734 299.281 561.713C299.14 561.692 299.01 561.63 298.906 561.534C298.803 561.439 298.731 561.314 298.7 561.177C298.669 561.04 298.68 560.897 298.732 560.766C301.346 554.337 313.383 523.592 302.262 509.852" fill="#D25658"/>
<path d="M299.697 561.659C299.568 561.719 299.424 561.739 299.283 561.718C299.143 561.696 299.012 561.634 298.909 561.538C298.805 561.442 298.733 561.317 298.702 561.18C298.671 561.043 298.682 560.9 298.734 560.768C300.072 557.477 303.883 547.803 305.785 537.303C307.588 527.382 307.681 516.718 302.379 510.005C302.342 509.957 302.298 509.906 302.261 509.858L302.454 509.807L334.186 502.521C336.131 505.722 337.749 510.12 338.087 515.259C338.973 528.423 331.483 546.433 299.697 561.659Z" fill="#43BBD6"/>
<g opacity="0.35">
<path d="M305.785 537.303C307.588 527.382 307.681 516.718 302.379 510.005C302.404 509.942 302.428 509.876 302.455 509.812L334.187 502.526C336.132 505.728 337.751 510.126 338.089 515.264C332.274 523.559 322.228 531.54 305.785 537.303Z" fill="#196899"/>
</g>
<path d="M300.265 564.337C299.645 564.5 298.993 564.49 298.38 564.308C297.768 564.126 297.22 563.779 296.796 563.307C296.373 562.834 296.091 562.254 295.982 561.63C295.872 561.006 295.94 560.364 296.178 559.774C299.545 551.489 309.782 523.528 300.108 511.576C299.651 511.013 299.44 510.292 299.522 509.572C299.603 508.852 299.97 508.191 300.542 507.736C301.114 507.28 301.844 507.067 302.571 507.143C303.299 507.219 303.964 507.578 304.421 508.14C314.266 520.303 308.03 543.554 303.188 556.844C319.964 547.955 330.621 537.262 334.129 525.729C337.516 514.599 333.224 506.236 331.829 503.937C331.454 503.319 331.343 502.577 331.521 501.875C331.699 501.173 332.152 500.568 332.779 500.193C333.406 499.818 334.156 499.704 334.865 499.876C335.574 500.048 336.183 500.491 336.558 501.109C338.719 504.674 343.333 514.36 339.405 527.269C335.059 541.553 322.099 553.944 300.887 564.103C300.688 564.201 300.479 564.279 300.265 564.337Z" fill="#196899"/>
<path d="M490.98 335.974C490.98 335.974 498.125 404.449 422.868 468.094C358.752 522.311 303.46 518.879 303.46 518.879C282.355 505.291 266.913 484.646 259.927 460.682C259.927 460.682 265.612 436.832 290.554 407.566C291.412 406.56 292.296 405.542 293.206 404.522C303.041 393.444 315.627 381.689 331.684 370.239C335.471 367.537 339.455 364.855 343.637 362.194C343.801 362.087 343.967 361.986 344.133 361.885C361.022 351.207 377.118 343.806 392.035 338.776C392.511 338.614 392.984 338.459 393.457 338.304C451.153 319.384 490.98 335.974 490.98 335.974Z" fill="#E6E6E6"/>
<path d="M466.382 419.833C451.6 387.567 430.076 358.795 403.218 335.404C456.016 320.883 491.751 335.768 491.751 335.768C491.751 335.768 495.738 373.975 466.382 419.833Z" fill="#43BBD6"/>
<g opacity="0.6">
<path d="M491.746 340.136C491.75 336.86 491.565 335.073 491.565 335.073C491.565 335.073 455.833 320.188 403.032 334.709C404.766 336.219 406.478 337.752 408.166 339.308C453.164 327.901 485.064 337.74 491.746 340.136Z" fill="#E6E6E6"/>
</g>
<path d="M465.972 425.555L463.872 420.97C449.157 388.846 428.136 360.747 401.39 337.454L397.575 334.132L402.49 332.78C444.34 321.26 475.823 327.999 487.419 331.427C489.535 332.04 491.387 333.319 492.697 335.07C494.007 336.821 494.703 338.949 494.682 341.134C494.62 353.126 491.965 384.943 468.702 421.283L465.972 425.555ZM408.867 336.748C433.016 358.583 452.66 384.84 466.727 414.085C486.758 380.769 489.12 352.186 489.177 341.139C489.186 340.128 488.864 339.144 488.258 338.334C487.652 337.524 486.796 336.932 485.818 336.647C475.136 333.491 446.848 327.428 408.867 336.748Z" fill="#196899"/>
<path d="M340.121 516.37C318.372 522.197 304.622 521.427 304.044 521.39L303.325 521.345L302.72 520.958C281.062 507.021 265.215 485.839 258.051 461.249L257.853 460.565L258.018 459.87C258.154 459.307 261.451 445.847 273.614 426.691C284.764 409.128 305.847 383.247 342.93 359.701C362.374 347.356 382.414 338.298 402.497 332.779L403.933 332.383L405.046 333.354C432.31 357.099 453.758 385.731 468.786 418.462L469.695 419.738L468.712 421.286C457.555 438.728 442.984 455.104 425.418 469.963C391.912 498.298 360.804 510.768 340.608 516.242L340.121 516.37ZM305.115 515.973C308.148 516.042 320.947 515.979 339.466 510.905C359.051 505.562 389.241 493.398 421.852 465.826C438.576 451.684 452.497 436.151 463.258 419.638C448.781 388.514 428.352 361.206 402.505 338.43C383.437 343.837 364.397 352.53 345.885 364.283C280.896 405.547 265.324 454.215 263.559 460.428C270.385 483.223 285.09 502.879 305.115 515.973Z" fill="#196899"/>
<path d="M291.855 526.867C289.252 527.564 286.525 527.656 283.888 527.135C281.251 526.615 278.776 525.496 276.657 523.866C263.588 513.833 253.565 500.436 247.675 485.127C246.555 482.222 246.254 479.065 246.804 475.994C247.354 472.922 248.735 470.051 250.799 467.684L258.62 458.707C258.854 458.426 259.143 458.194 259.468 458.024C259.794 457.855 260.15 457.751 260.515 457.719C260.881 457.687 261.249 457.727 261.598 457.838C261.946 457.949 262.269 458.127 262.546 458.363C262.823 458.599 263.05 458.888 263.212 459.212C263.375 459.537 263.47 459.891 263.492 460.253C263.514 460.615 263.463 460.978 263.341 461.321C263.22 461.665 263.03 461.981 262.784 462.251L254.964 471.228C253.552 472.846 252.607 474.811 252.231 476.913C251.854 479.014 252.06 481.174 252.826 483.161C258.359 497.542 267.774 510.127 280.051 519.551C281.748 520.856 283.773 521.679 285.912 521.933C288.051 522.186 290.223 521.86 292.196 520.989L303.136 516.18C303.805 515.886 304.564 515.866 305.244 516.125C305.925 516.383 306.472 516.9 306.766 517.56C307.059 518.22 307.074 518.97 306.808 519.645C306.542 520.32 306.017 520.865 305.348 521.159L294.409 525.968C293.582 526.332 292.728 526.632 291.855 526.867Z" fill="#196899"/>
<g opacity="0.35">
<path d="M428.918 429.64C439.439 411.676 433.3 388.767 415.207 378.471C397.114 368.174 373.918 374.39 363.397 392.353C352.876 410.317 359.014 433.226 377.107 443.523C395.2 453.819 418.397 447.603 428.918 429.64Z" fill="#196899"/>
</g>
<path d="M404.486 438.845C422.681 433.97 433.527 415.451 428.712 397.481C423.897 379.512 405.245 368.897 387.05 373.772C368.855 378.647 358.009 397.167 362.824 415.136C367.638 433.105 386.291 443.72 404.486 438.845Z" fill="#43BBD6"/>
<g opacity="0.6">
<path d="M426.777 392.417C426.362 391.772 425.924 391.139 425.46 390.519C414.3 375.598 392.964 372.533 377.812 383.667C364.453 393.483 360.358 411.059 367.223 425.308C357.638 410.535 361.211 390.669 375.736 379.994C390.894 368.859 412.225 371.927 423.393 386.85C424.698 388.594 425.831 390.458 426.777 392.417Z" fill="#E6E6E6"/>
</g>
<g opacity="0.35">
<path d="M415.977 433.324C400.828 444.458 379.494 441.398 368.33 426.475C364.936 421.95 362.758 416.644 361.997 411.048C363.022 413.374 364.309 415.576 365.834 417.614C376.997 432.537 398.331 435.606 413.486 424.47C418.414 420.849 422.273 415.987 424.657 410.396C427.042 404.805 427.863 398.691 427.035 392.697C433.235 406.753 429.021 423.738 415.977 433.324Z" fill="#196899"/>
</g>
<path d="M405.188 441.497C396.303 443.893 386.855 442.93 378.692 438.796C370.528 434.662 364.236 427.654 361.047 419.143C357.857 410.632 357.999 401.23 361.445 392.776C364.89 384.322 371.392 377.425 379.679 373.432C387.965 369.44 397.439 368.64 406.249 371.188C415.059 373.737 422.57 379.452 427.314 387.214C432.057 394.976 433.692 404.228 431.899 413.16C430.105 422.091 425.012 430.061 417.615 435.509C413.886 438.26 409.67 440.291 405.188 441.497ZM387.757 376.383C383.3 377.578 379.158 379.729 375.626 382.684C372.095 385.638 369.262 389.324 367.329 393.477C365.396 397.629 364.41 402.147 364.443 406.708C364.475 411.269 365.525 415.761 367.517 419.862C369.509 423.963 372.394 427.573 375.967 430.435C379.54 433.296 383.711 435.338 388.185 436.415C392.659 437.492 397.323 437.578 401.847 436.666C406.37 435.754 410.64 433.866 414.353 431.139C420.216 426.82 424.387 420.624 426.148 413.617C427.909 406.611 427.15 399.231 424.002 392.748C420.854 386.265 415.513 381.084 408.899 378.097C402.285 375.11 394.811 374.504 387.763 376.382L387.757 376.383Z" fill="#196899"/>
<path d="M414.597 416.413C420.616 406.136 417.104 393.03 406.753 387.139C396.402 381.248 383.131 384.804 377.112 395.081C371.093 405.358 374.605 418.465 384.956 424.355C395.307 430.246 408.578 426.69 414.597 416.413Z" fill="#43BBD6"/>
<g opacity="0.3">
<path d="M408.713 422.937C404.084 426.339 398.289 427.79 392.604 426.972C386.919 426.154 381.81 423.133 378.399 418.574C376.901 416.581 375.77 414.339 375.06 411.952C375.196 412.148 375.335 412.341 375.48 412.538C378.503 416.585 382.879 419.439 387.838 420.597C392.797 421.755 398.02 421.143 402.589 418.869C407.159 416.596 410.781 412.806 412.819 408.166C414.858 403.526 415.181 398.334 413.732 393.503C416.914 398.072 418.169 403.695 417.233 409.187C416.296 414.679 413.242 419.609 408.713 422.937Z" fill="#E6E6E6"/>
</g>
<g opacity="0.35">
<path d="M417.321 401.14C417.113 400.836 416.904 400.534 416.678 400.234C413.707 396.26 409.43 393.437 404.574 392.243C399.718 391.049 394.583 391.558 390.043 393.684C385.503 395.81 381.838 399.422 379.671 403.905C377.505 408.388 376.97 413.466 378.158 418.274C376.418 415.674 375.276 412.726 374.812 409.636C374.348 406.546 374.574 403.389 375.472 400.385C376.371 397.382 377.922 394.606 380.015 392.25C382.109 389.895 384.695 388.017 387.592 386.75C390.49 385.482 393.628 384.855 396.788 384.912C399.948 384.969 403.053 385.708 405.885 387.079C408.717 388.45 411.208 390.419 413.184 392.848C415.159 395.277 416.571 398.107 417.321 401.14Z" fill="#196899"/>
</g>
<path d="M402.103 429.09C397.363 430.35 392.36 430.177 387.739 428.593C383.117 427.009 379.092 424.087 376.181 420.205C368.193 409.522 370.513 394.347 381.361 386.373C392.208 378.399 407.536 380.604 415.528 391.288C423.52 401.971 421.195 417.146 410.347 425.118C407.873 426.943 405.076 428.291 402.103 429.09ZM390.991 387.682C388.697 388.297 386.538 389.335 384.628 390.742C376.227 396.917 374.426 408.663 380.617 416.944C382.091 418.914 383.945 420.575 386.073 421.833C388.2 423.091 390.56 423.92 393.017 424.273C395.475 424.627 397.981 424.498 400.394 423.893C402.807 423.288 405.078 422.22 407.079 420.75C415.481 414.575 417.282 402.828 411.092 394.548C408.835 391.538 405.712 389.275 402.128 388.051C398.544 386.827 394.664 386.698 390.991 387.682Z" fill="#196899"/>
<g opacity="0.2">
<path d="M452.362 343.037C450.879 338.138 439.45 337.051 433.577 338.672C427.498 340.352 424.11 342.37 424.865 345.29C425.917 349.367 431.046 349.529 436.743 348.229C440.771 347.309 454.193 349.083 452.362 343.037Z" fill="#E6E6E6"/>
</g>
<g opacity="0.2">
<path d="M469.303 345.19C467.827 340.994 461.516 338.409 458.575 338.85C455.531 339.307 453.982 340.44 454.791 342.921C455.92 346.386 458.706 347.28 461.598 347.074C463.643 346.928 471.122 350.368 469.303 345.19Z" fill="#E6E6E6"/>
</g>
<g opacity="0.35">
<path d="M301.525 514.185C301.525 514.185 356.816 517.617 420.93 463.405C486.041 408.343 489.469 349.678 489.211 334.851C489.627 334.989 489.992 335.114 490.307 335.226C489.027 334.773 486.919 334.08 484.045 333.317C480.012 358.735 465.719 401.721 417.251 442.709C386.978 468.308 358.672 481.055 337.227 487.38C309.842 495.462 280.36 484.623 265.55 460.587C265.469 460.46 265.386 460.321 265.304 460.19C264.722 459.233 264.157 458.266 263.608 457.29C263.351 456.894 263.088 456.504 262.837 456.103C262.756 455.975 262.674 455.837 262.592 455.705C262.51 455.574 262.424 455.417 262.338 455.275L262.399 455.109C261.163 458.547 260.699 460.479 260.699 460.479C262.949 468.199 266.096 475.631 270.077 482.625C278.135 495.27 288.86 506.033 301.525 514.185Z" fill="#196899"/>
</g>
<path d="M293.141 497.288C279.614 507.225 258.41 506.471 258.41 506.471C258.41 506.471 258.43 506.392 258.473 506.254C259.1 504.039 264.66 485.537 277.357 476.197C289.542 467.236 305.827 468.717 308.752 469.074C309.053 469.111 309.212 469.135 309.212 469.135C309.212 469.135 306.58 487.423 293.141 497.288Z" fill="#43BBD6"/>
<g opacity="0.6">
<path d="M310.102 469.638C310.102 469.638 309.948 470.752 309.5 472.574C303.986 472.201 290.597 472.237 280.191 479.89C269.981 487.399 264.386 500.836 262.255 506.956C260.399 507.016 259.297 506.978 259.297 506.978C259.297 506.978 259.321 506.898 259.36 506.758C259.99 504.546 265.551 486.04 278.248 476.704C290.433 467.742 306.714 469.226 309.639 469.581C309.944 469.617 310.102 469.638 310.102 469.638Z" fill="#E6E6E6"/>
</g>
<g opacity="0.35">
<path d="M293.141 497.288C279.614 507.225 258.41 506.471 258.41 506.471C258.41 506.471 258.43 506.392 258.473 506.254L308.752 469.074C309.053 469.111 309.212 469.135 309.212 469.135C309.212 469.135 306.58 487.423 293.141 497.288Z" fill="#196899"/>
</g>
<path d="M278.99 506.686C268.475 509.503 258.892 509.215 258.293 509.194L254.868 509.07L255.745 505.787C255.977 504.919 261.585 484.408 275.726 474.01C289.926 463.569 308.849 466.317 309.648 466.44L312.32 466.848L311.939 469.499C311.826 470.292 308.983 489.038 294.776 499.472C289.988 502.992 284.367 505.245 278.99 506.686ZM262.189 503.689C268.632 503.404 282.179 501.959 291.507 495.107C300.836 488.255 304.603 476.833 305.896 471.576C300.437 471.283 288.293 471.542 278.994 478.382C269.643 485.256 264.331 497.667 262.189 503.689Z" fill="#196899"/>
<g opacity="0.25">
<path d="M353.813 423.517C356.707 425.926 377.663 446.186 368.572 458.905C360.617 470.043 341.41 473.71 327.949 463.158C319.048 456.175 315.017 446.457 313.325 438.651C311.352 429.531 310.683 420.505 304.329 414.983C300.939 412.029 296.086 409.895 290.551 407.567C291.41 406.561 292.293 405.542 293.203 404.523C303.038 393.445 315.624 381.689 331.681 370.24C335.608 370.964 339.514 372.2 343.052 374.191C357.009 382.065 363.138 403.717 357.996 414.54C355.966 418.802 353.813 423.517 353.813 423.517Z" fill="#196899"/>
</g>
<path d="M358.714 415.155C361.608 417.566 382.565 437.823 373.473 450.543C365.517 461.681 346.31 465.348 332.843 454.797C323.943 447.815 319.912 438.098 318.219 430.29C316.246 421.17 315.577 412.145 309.223 406.624C301.991 400.329 281.036 402.871 267.948 394.192C260.235 389.084 253.808 377.773 250.356 362.734C249.26 357.901 248.5 352.997 248.081 348.056C246.167 326.002 250.105 298.989 263.562 272.399C263.562 272.399 279.271 300.501 294.444 325.139C305.018 342.316 315.336 357.808 319.871 360.911C320.475 361.329 320.976 361.517 321.363 361.47C326.105 360.867 330.906 360.949 335.615 361.712C339.854 362.408 344.113 363.677 347.936 365.825C361.891 373.699 368.022 395.352 362.879 406.175C360.863 410.442 358.714 415.155 358.714 415.155Z" fill="#E6E6E6"/>
<g opacity="0.25">
<path d="M375.725 444.04C375.629 446.373 374.848 448.632 373.477 450.541C365.521 461.68 346.314 465.347 332.847 454.796C323.949 447.82 319.916 438.097 318.224 430.289C316.25 421.169 315.574 412.145 309.229 406.628C301.997 400.335 281.039 402.865 267.947 394.199C260.245 389.087 253.811 377.766 250.359 362.729C250.341 362.664 250.329 362.588 250.311 362.524C250.197 362.019 250.09 361.512 249.981 360.999C249.884 360.53 249.786 360.056 249.691 359.574C249.649 359.36 249.604 359.14 249.565 358.917C249.354 357.782 249.153 356.632 248.975 355.46C248.891 354.905 248.811 354.341 248.729 353.772C248.673 353.377 248.623 352.975 248.572 352.573C248.525 352.24 248.487 351.905 248.452 351.563C248.39 351.036 248.334 350.509 248.275 349.973C248.214 349.368 248.157 348.756 248.1 348.145C248.091 348.111 248.095 348.075 248.093 348.04C248.316 347.595 248.562 347.162 248.83 346.743C248.83 346.743 251.083 347.106 255.672 347.053C262.966 346.973 276.159 345.862 295.604 340.623L292.628 330.743C292.326 329.737 292.338 328.661 292.664 327.658C292.99 326.655 293.615 325.771 294.456 325.122C294.863 324.804 295.317 324.55 295.802 324.367L307.545 319.853L336.21 356.949L319.885 360.9L307.607 363.873C306.319 364.133 304.982 363.908 303.857 363.244C302.733 362.58 301.902 361.523 301.527 360.28L300.034 355.32C289.994 360.541 272.494 365.891 260.065 365.233C263.705 375.407 268.893 383.025 274.829 386.961C287.916 395.64 301.335 385.503 314.666 394.504C322.998 400.138 323.127 413.939 325.1 423.059C326.793 430.866 326.806 442.978 335.696 449.956C347.456 459.192 365.932 453.141 375.725 444.04Z" fill="#196899"/>
</g>
<g opacity="0.25">
<path d="M358.813 246.932C354.631 257.618 347.96 267.19 339.344 274.866C331.064 282.203 321.219 287.593 310.551 290.629C299.884 293.664 288.674 294.266 277.768 292.389C267.748 290.644 258.146 297.443 256.459 307.39C254.033 321.704 253.987 335.246 255.672 347.06C251.083 347.113 248.83 346.751 248.83 346.751C248.562 347.17 248.316 347.602 248.094 348.047C246.179 325.992 250.118 298.979 263.574 272.389L264.315 274.354C265.944 270.232 267.054 267.877 267.054 267.877L331.568 254.03C331.568 254.03 332.703 257.277 334.688 262.638C342.028 258.464 350.824 253.02 358.813 246.932Z" fill="#196899"/>
</g>
<path d="M322.462 360.436C325.908 359.465 329.531 359.087 333.15 359.192C336.77 359.297 340.412 359.846 343.94 361.018C345.72 361.609 347.449 362.341 349.108 363.207C350.79 364.114 352.378 365.181 353.849 366.393C356.775 368.811 359.142 371.739 361.077 374.865C362.973 377.996 364.469 381.349 365.531 384.848C366.642 388.342 367.278 391.97 367.421 395.636C367.536 399.327 367.191 403.166 365.57 406.896L361.217 416.263L360.488 413.065C361.232 413.697 361.828 414.267 362.455 414.869C363.082 415.47 363.668 416.07 364.253 416.683C365.429 417.909 366.563 419.169 367.657 420.463C369.879 423.064 371.893 425.833 373.679 428.746C375.448 431.71 377.016 434.889 377.885 438.47C378.312 440.254 378.582 442.138 378.47 444.095C378.376 446.092 377.884 448.053 377.024 449.867L376.694 450.551C376.576 450.773 376.433 450.981 376.303 451.196C376.031 451.608 375.773 452.082 375.476 452.417C374.885 453.133 374.328 453.886 373.697 454.561C373.034 455.205 372.388 455.866 371.702 456.486L369.529 458.184C366.528 460.25 363.182 461.772 359.647 462.678C356.146 463.587 352.523 463.934 348.917 463.705C345.31 463.507 341.762 462.592 338.447 461.204C337.616 460.855 336.777 460.521 336.005 460.055C335.234 459.589 334.411 459.214 333.664 458.717L331.47 457.167C330.742 456.644 330.1 456.054 329.412 455.498C326.783 453.159 324.46 450.503 322.498 447.591C320.572 444.692 318.982 441.587 317.756 438.333C317.138 436.722 316.606 435.079 316.163 433.412C315.939 432.578 315.741 431.738 315.547 430.896L315.043 428.45C314.393 425.199 313.845 422.021 313.048 419.026C312.252 416.03 311.194 413.233 309.542 411.004C309.348 410.717 309.134 410.445 308.9 410.189C308.667 409.937 308.465 409.653 308.211 409.424L307.467 408.712C307.239 408.514 307 408.33 306.752 408.159C305.73 407.469 304.417 406.905 302.998 406.456C300.136 405.564 296.939 405.032 293.712 404.509C287.252 403.467 280.472 402.557 273.875 400.145C270.589 398.916 267.36 397.332 264.475 395.01C261.634 392.724 259.35 389.989 257.406 387.116C255.505 384.25 253.854 381.229 252.472 378.083C251.14 374.969 249.994 371.779 249.041 368.529C247.175 362.049 246.029 355.417 245.401 348.756C244.229 335.424 245.188 321.976 247.892 308.903C249.311 302.383 250.787 295.846 253.091 289.555C255.432 283.295 258.35 277.188 262.762 271.975C262.898 271.815 263.085 271.703 263.292 271.659C263.499 271.616 263.714 271.642 263.904 271.733C264.093 271.825 264.246 271.977 264.337 272.165C264.428 272.353 264.452 272.566 264.406 272.771L264.408 272.779C262.911 279.312 260.661 285.311 258.649 291.436C256.601 297.528 254.544 303.649 253.293 309.964C250.687 322.554 249.773 335.497 250.894 348.235C251.494 354.593 252.588 360.902 254.341 366.99C255.228 370.015 256.295 372.986 257.534 375.886C258.782 378.731 260.271 381.465 261.986 384.059C263.7 386.601 265.682 388.941 267.967 390.774C270.206 392.586 272.952 393.967 275.831 395.038C281.651 397.177 288.073 398.088 294.626 399.128C297.914 399.668 301.259 400.198 304.706 401.265C306.424 401.816 308.19 402.52 309.899 403.666C310.329 403.961 310.743 404.279 311.137 404.619L312.173 405.607C312.521 405.934 312.814 406.311 313.128 406.665C313.444 407.017 313.737 407.389 314.005 407.777C315.097 409.269 316.002 410.887 316.7 412.596C317.378 414.221 317.939 415.891 318.379 417.596C319.26 420.923 319.817 424.192 320.451 427.355L320.932 429.713C321.107 430.467 321.278 431.222 321.485 431.966C321.882 433.459 322.357 434.929 322.91 436.372C323.992 439.243 325.395 441.984 327.094 444.543C330.515 449.562 335.134 453.929 340.647 456.17C343.392 457.316 346.331 458.089 349.345 458.247C352.347 458.433 355.364 458.144 358.28 457.389C361.175 456.653 363.918 455.414 366.38 453.73L368.111 452.373C368.647 451.881 369.15 451.36 369.677 450.86C370.169 450.332 370.586 449.748 371.053 449.2C371.31 448.922 371.423 448.654 371.609 448.381C371.692 448.246 371.789 448.116 371.863 447.975L372.064 447.546C373.173 445.282 373.247 442.534 372.538 439.749C371.871 436.962 370.541 434.188 368.957 431.548C367.317 428.881 365.472 426.344 363.436 423.96C362.415 422.755 361.355 421.577 360.26 420.436C359.715 419.863 359.157 419.306 358.597 418.757C358.036 418.207 357.447 417.662 356.94 417.232L355.353 415.883L356.214 414.032L360.539 404.712C361.674 402.123 362.051 398.979 361.911 395.857C361.614 389.577 359.46 383.248 356.071 377.923C354.362 375.267 352.351 372.824 350.013 370.828C348.855 369.833 347.607 368.943 346.286 368.17C344.929 367.379 343.509 366.698 342.039 366.135C339.003 364.974 335.865 364.089 332.664 363.489C329.417 362.87 326.086 362.491 322.651 362.224L322.644 362.226C322.426 362.209 322.222 362.116 322.067 361.965C321.913 361.814 321.816 361.614 321.796 361.399C321.776 361.184 321.832 360.968 321.955 360.789C322.079 360.611 322.262 360.48 322.472 360.42L322.462 360.436Z" fill="#196899"/>
<path d="M314.364 414.923C313.882 415.05 313.37 415.001 312.924 414.784C312.478 414.567 312.128 414.197 311.937 413.742C302.747 391.874 313.482 377.495 318.525 372.328C326.885 363.762 338.716 360.001 347.299 363.183C347.555 363.274 347.79 363.416 347.99 363.598C348.191 363.781 348.352 364.001 348.465 364.247C348.579 364.492 348.641 364.758 348.65 365.028C348.659 365.298 348.613 365.567 348.516 365.821C348.419 366.074 348.272 366.306 348.083 366.503C347.895 366.7 347.67 366.859 347.42 366.97C347.17 367.081 346.9 367.141 346.627 367.148C346.354 367.156 346.082 367.109 345.828 367.012C338.854 364.427 328.62 367.852 321.489 375.159C317.017 379.742 307.504 392.522 315.754 412.154C315.859 412.401 315.913 412.667 315.913 412.936C315.913 413.205 315.86 413.471 315.757 413.72C315.653 413.969 315.501 414.196 315.309 414.387C315.117 414.579 314.889 414.731 314.638 414.835C314.549 414.871 314.457 414.901 314.364 414.923Z" fill="#196899"/>
<path d="M362.29 413.842C362.079 414.181 361.93 414.385 361.752 414.649C361.574 414.912 361.396 415.127 361.215 415.36C360.855 415.829 360.465 416.265 360.066 416.698C359.268 417.557 358.412 418.36 357.503 419.103C355.662 420.609 353.597 421.825 351.383 422.707C349.152 423.57 346.733 424.115 344.339 423.953C341.957 423.817 339.659 423.06 337.834 421.719C340.117 421.509 342.146 421.275 344.035 420.669C344.962 420.404 345.869 420.075 346.75 419.686C347.627 419.321 348.473 418.885 349.279 418.383C350.909 417.379 352.43 416.212 353.818 414.899C354.538 414.259 355.205 413.558 355.879 412.868L356.853 411.806L357.74 410.798L357.875 410.646C358.331 410.131 358.964 409.802 359.65 409.725C360.335 409.648 361.024 409.828 361.579 410.229C362.134 410.631 362.515 411.225 362.647 411.893C362.78 412.562 362.653 413.257 362.293 413.841L362.29 413.842Z" fill="#196899"/>
<path d="M362.917 212.275C362.732 212.337 362.536 212.363 362.342 212.351C362.147 212.339 361.957 212.288 361.782 212.203C361.608 212.118 361.452 212 361.324 211.855C361.196 211.71 361.099 211.541 361.037 211.358L347.469 171.283C347.344 170.914 347.373 170.51 347.549 170.16C347.725 169.81 348.034 169.543 348.407 169.417C352.328 168.097 356.61 168.368 360.309 170.171C364.009 171.975 366.824 175.162 368.135 179.033L372.762 192.7C374.072 196.571 373.771 200.808 371.925 204.479C370.078 208.15 366.838 210.955 362.917 212.275Z" fill="#E6E6E6"/>
<path d="M362.902 212.584C362.464 212.701 361.999 212.649 361.601 212.439C361.202 212.229 360.9 211.876 360.756 211.453L347.189 171.377C347.04 170.935 347.074 170.451 347.285 170.031C347.496 169.612 347.865 169.291 348.313 169.14C352.309 167.799 356.671 168.077 360.439 169.915C364.208 171.753 367.076 174.999 368.415 178.942L373.041 192.607C373.703 194.56 373.968 196.626 373.822 198.686C373.676 200.745 373.121 202.759 372.189 204.611C371.258 206.464 369.967 208.119 368.392 209.482C366.817 210.844 364.987 211.889 363.008 212.554L362.902 212.584ZM349.46 169.412C349.139 169.498 348.821 169.594 348.503 169.701C348.204 169.802 347.956 170.016 347.815 170.296C347.674 170.576 347.651 170.899 347.751 171.195L361.317 211.264C361.367 211.41 361.445 211.546 361.547 211.662C361.649 211.779 361.774 211.874 361.914 211.942C362.054 212.011 362.206 212.051 362.362 212.061C362.518 212.07 362.675 212.05 362.823 211.999C366.67 210.704 369.849 207.952 371.66 204.351C373.472 200.749 373.767 196.592 372.481 192.794L367.854 179.128C366.623 175.492 364.037 172.464 360.621 170.658C357.204 168.853 353.213 168.405 349.458 169.405L349.46 169.412Z" fill="#371A45"/>
<g opacity="0.35">
<path d="M370.592 186.292L372.764 192.708C374.073 196.58 373.772 200.817 371.925 204.488C370.079 208.159 366.839 210.964 362.918 212.285C362.544 212.411 362.135 212.385 361.782 212.212C361.429 212.04 361.161 211.736 361.036 211.366L357.429 200.718C357.622 200.926 357.873 201.074 358.15 201.144C358.427 201.214 358.719 201.203 358.991 201.113L359.958 200.784C363.025 199.75 365.697 197.799 367.603 195.202C369.508 192.605 370.553 189.491 370.592 186.292Z" fill="#196899"/>
</g>
<path d="M363.528 214.934C362.486 215.211 361.38 215.087 360.432 214.586C359.484 214.086 358.766 213.247 358.423 212.239L344.856 172.163C344.501 171.109 344.584 169.957 345.086 168.959C345.588 167.961 346.469 167.198 347.535 166.838C349.82 166.068 352.233 165.75 354.636 165.902C357.039 166.055 359.385 166.674 361.541 167.725C363.696 168.775 365.619 170.237 367.199 172.027C368.778 173.816 369.984 175.899 370.747 178.154L375.374 191.82C376.138 194.075 376.444 196.461 376.275 198.839C376.106 201.218 375.465 203.543 374.389 205.682C373.313 207.821 371.823 209.733 370.004 211.307C368.185 212.881 366.073 214.087 363.788 214.856C363.703 214.884 363.615 214.911 363.528 214.934ZM350.502 171.643L363.226 209.226C366.129 207.916 368.444 205.591 369.723 202.699C371.001 199.807 371.152 196.556 370.147 193.575L365.52 179.908C364.51 176.927 362.414 174.43 359.639 172.903C356.864 171.376 353.607 170.927 350.502 171.643Z" fill="#196899"/>
<path d="M214.411 214.544C214.596 214.482 214.792 214.456 214.986 214.468C215.181 214.481 215.371 214.531 215.546 214.616C215.72 214.701 215.876 214.82 216.004 214.964C216.132 215.109 216.229 215.278 216.291 215.461L229.859 255.537C229.921 255.719 229.946 255.912 229.932 256.105C229.919 256.298 229.867 256.486 229.78 256.659C229.692 256.832 229.572 256.987 229.424 257.115C229.277 257.242 229.106 257.34 228.921 257.402C225 258.723 220.718 258.452 217.019 256.648C213.319 254.845 210.504 251.657 209.193 247.786L204.567 234.121C203.256 230.249 203.557 226.012 205.403 222.341C207.25 218.669 210.49 215.865 214.411 214.544Z" fill="#E6E6E6"/>
<path d="M228.022 257.98C224.121 259.018 219.976 258.553 216.427 256.677C212.879 254.802 210.193 251.657 208.914 247.88L204.287 234.214C203.626 232.26 203.36 230.195 203.507 228.135C203.653 226.076 204.208 224.062 205.14 222.21C206.071 220.358 207.362 218.703 208.937 217.34C210.512 215.977 212.342 214.933 214.321 214.268C214.769 214.118 215.257 214.149 215.68 214.355C216.102 214.561 216.424 214.924 216.575 215.365L230.142 255.442C230.291 255.884 230.257 256.368 230.046 256.787C229.835 257.207 229.465 257.527 229.018 257.679C228.686 257.79 228.354 257.891 228.022 257.98ZM214.498 214.823C212.593 215.465 210.832 216.47 209.316 217.783C207.8 219.095 206.558 220.688 205.661 222.472C204.765 224.255 204.231 226.193 204.09 228.176C203.95 230.159 204.205 232.147 204.842 234.028L209.468 247.693C210.105 249.574 211.11 251.31 212.427 252.802C213.744 254.294 215.347 255.512 217.145 256.389C218.942 257.265 220.898 257.781 222.902 257.908C224.905 258.035 226.917 257.77 228.822 257.128C228.97 257.078 229.107 257 229.225 256.897C229.343 256.795 229.44 256.671 229.51 256.532C229.579 256.393 229.621 256.243 229.632 256.088C229.643 255.934 229.623 255.779 229.573 255.633L216.005 215.557C215.956 215.41 215.878 215.275 215.775 215.159C215.673 215.042 215.548 214.947 215.408 214.879C215.268 214.811 215.115 214.771 214.959 214.761C214.803 214.752 214.646 214.773 214.498 214.823Z" fill="#371A45"/>
<g opacity="0.35">
<path d="M226.098 244.418L229.861 255.536C229.985 255.906 229.956 256.31 229.779 256.66C229.603 257.01 229.294 257.278 228.92 257.404C226.979 258.058 224.928 258.328 222.886 258.199C220.844 258.07 218.85 257.544 217.019 256.651C215.187 255.758 213.553 254.516 212.211 252.995C210.868 251.475 209.844 249.705 209.195 247.789L207.247 242.03C209.285 244.19 211.913 245.72 214.817 246.436C217.72 247.152 220.776 247.023 223.618 246.067L225.099 245.567C225.353 245.481 225.58 245.329 225.756 245.127C225.932 244.924 226.05 244.68 226.098 244.418Z" fill="#196899"/>
</g>
<path d="M228.661 260.325C224.155 261.523 219.369 260.986 215.269 258.823C211.17 256.659 208.065 253.03 206.582 248.67L201.955 235.004C200.413 230.449 200.768 225.463 202.94 221.143C205.112 216.823 208.925 213.523 213.539 211.969C214.606 211.611 215.77 211.685 216.776 212.175C217.782 212.665 218.548 213.532 218.905 214.585L232.473 254.661C232.829 255.714 232.747 256.867 232.245 257.866C231.743 258.864 230.861 259.627 229.795 259.987C229.42 260.11 229.043 260.222 228.661 260.325ZM214.101 217.587C211.198 218.897 208.883 221.224 207.604 224.115C206.326 227.007 206.175 230.259 207.18 233.24L211.807 246.906C212.816 249.887 214.912 252.384 217.687 253.912C220.463 255.439 223.719 255.888 226.824 255.17L214.101 217.587Z" fill="#196899"/>
<path d="M351.727 249.289C371.977 214.715 360.162 170.622 325.338 150.804C290.514 130.987 245.868 142.949 225.618 177.524C205.369 212.098 217.183 256.192 252.008 276.009C286.832 295.827 331.478 283.864 351.727 249.289Z" fill="#E6E6E6"/>
<path d="M307.416 283.327L306.902 283.464C267.79 293.647 227.795 270.508 217.743 231.88C207.74 193.422 231.13 153.887 269.93 143.49L270.443 143.353C289.392 138.424 309.098 141.067 325.94 150.818C342.782 160.568 354.735 176.231 359.604 194.945C369.608 233.394 346.216 272.93 307.416 283.327ZM270.072 144.049C251.504 149.025 235.92 160.794 226.135 177.221C216.256 193.807 213.483 213.162 218.315 231.729C223.147 250.297 235.004 265.836 251.707 275.493C268.409 285.15 287.96 287.785 306.759 282.889C325.558 277.994 341.339 266.168 351.213 249.582C361.087 232.996 363.865 213.641 359.033 195.074C354.201 176.507 342.344 160.967 325.643 151.31C308.942 141.653 289.384 139.024 270.589 143.911L270.072 144.049Z" fill="#371A45"/>
<g opacity="0.35">
<path d="M356.126 185.53C357.412 188.612 358.479 191.78 359.318 195.012C369.342 233.547 345.845 273.019 306.827 283.183C267.808 293.346 228.057 270.339 218.026 231.804C217.735 230.691 217.475 229.58 217.244 228.474C230.837 261.199 267.155 279.664 302.854 270.369C340.739 260.503 363.997 222.985 356.126 185.53Z" fill="#196899"/>
</g>
<path d="M308.052 285.673L307.515 285.817C287.931 290.915 267.564 288.183 250.156 278.106C232.749 268.03 220.391 251.835 215.361 232.497C210.33 213.16 213.218 192.989 223.512 175.705C233.807 158.421 250.259 146.083 269.831 140.999C289.403 135.916 309.783 138.632 327.189 148.71C344.595 158.787 356.951 174.97 361.985 194.319C367.018 213.667 364.128 233.827 353.833 251.111C343.641 268.232 327.399 280.489 308.052 285.673ZM270.704 146.403C252.766 151.209 237.706 162.573 228.254 178.451C218.716 194.473 216.038 213.175 220.692 231.109C225.347 249.043 236.817 264.06 252.954 273.397C269.092 282.735 287.98 285.274 306.131 280.547C324.306 275.791 339.541 264.391 349.08 248.367C358.619 232.343 361.304 213.643 356.639 195.716C351.974 177.788 340.514 162.763 324.376 153.426C308.239 144.088 289.351 141.551 271.2 146.277L270.704 146.403Z" fill="#196899"/>
<path d="M359.558 196.863C363.318 210.46 362.34 224.319 357.586 236.877C354.021 246.291 334.253 266.506 305.235 274.806C278.329 282.499 249.861 275.081 241.962 268.829C231.437 260.495 223.468 249.109 219.707 235.511C209.754 199.527 236.93 175.951 275.552 165.284C314.175 154.617 349.604 160.88 359.558 196.863Z" fill="#196899"/>
<path d="M304.351 276.736C276.976 284.071 249.058 276.533 240.932 270.106C229.742 261.253 221.854 249.443 218.123 235.953C213.266 218.387 216.647 202.874 228.183 189.844C238.262 178.456 254.493 169.424 275.119 163.717C295.745 158.01 314.314 157.431 328.814 162.025C345.406 167.282 356.282 178.853 361.141 196.419C364.873 209.909 364.174 224.091 359.122 237.433C355.622 246.68 336.352 267.591 305.682 276.361C305.24 276.495 304.802 276.615 304.351 276.736ZM277.027 166.574C276.673 166.669 276.324 166.763 275.987 166.853C255.439 172.532 208.977 190.548 221.295 235.075C224.844 247.902 232.348 259.134 242.995 267.559C250.445 273.455 277.579 280.543 303.538 273.588C303.96 273.475 304.372 273.365 304.79 273.241C333.968 264.897 352.854 244.75 356.048 236.314C360.855 223.617 361.522 210.129 357.972 197.3C345.859 153.511 298.147 160.912 277.027 166.571L277.027 166.574Z" fill="#196899"/>
<g opacity="0.7">
<path d="M344.765 197.381C344.142 190.359 339.466 185.055 334.32 185.533C329.174 186.011 325.507 192.091 326.13 199.112C326.753 206.134 331.429 211.438 336.575 210.96C341.721 210.482 345.388 204.402 344.765 197.381Z" fill="#E6E6E6"/>
</g>
<g opacity="0.7">
<path d="M336.258 225.906C336.426 222.672 334.289 219.948 331.484 219.823C328.68 219.698 326.271 222.219 326.103 225.453C325.936 228.687 328.073 231.41 330.877 231.535C333.681 231.66 336.09 229.14 336.258 225.906Z" fill="#E6E6E6"/>
</g>
<g opacity="0.35">
<path d="M336.671 167.052C347.448 172.746 355.561 182.408 359.555 196.861C363.317 210.461 362.337 224.32 357.588 236.877C354.021 246.291 334.252 266.507 305.234 274.808C294.99 277.74 284.52 278.477 275.04 277.92C310.495 266.966 334.539 242.214 338.958 230.537C344.994 214.6 346.234 197.007 341.459 179.754C340.266 175.38 338.663 171.127 336.671 167.052Z" fill="#111A28"/>
</g>
<path d="M219.023 204.428L213.97 202.29L216.355 203.314L213.894 202.495C221.368 180.873 242.713 163.757 272.439 155.539C301.987 147.386 328.935 150.761 346.499 164.805C347.037 165.213 347.402 165.806 347.524 166.468C347.645 167.13 347.514 167.814 347.156 168.389C346.798 168.964 346.238 169.389 345.584 169.581C344.931 169.774 344.23 169.721 343.617 169.432C343.419 169.338 343.233 169.222 343.061 169.086C326.896 156.132 301.673 153.097 273.887 160.791C245.943 168.514 225.975 184.35 219.1 204.231C219.078 204.299 219.051 204.364 219.023 204.428Z" fill="#196899"/>
<g opacity="0.7">
<path d="M241.333 252.581C241.333 252.581 220.229 220.202 235.688 200.703C251.146 181.203 279.033 173.558 278.87 175.503C278.87 175.503 250.057 191.413 244.646 218.833C240.475 239.98 241.333 252.581 241.333 252.581Z" fill="#E6E6E6"/>
</g>
<path d="M360.513 303.548L366.316 317.578L370.834 328.49C371.426 329.919 371.448 331.52 370.894 332.972C370.34 334.423 369.251 335.615 367.848 336.309C365.975 337.24 363.638 338.366 360.936 339.609C351.317 344.026 337.004 349.919 322.041 353.687C320.491 354.074 318.854 353.854 317.471 353.073C316.089 352.293 315.068 351.012 314.621 349.499L305.807 319.682C305.572 318.886 305.503 318.051 305.604 317.226C305.705 316.401 305.975 315.604 306.397 314.884C306.819 314.163 307.384 313.534 308.058 313.035C308.732 312.536 309.5 312.177 310.317 311.98C320.74 309.468 341.464 304.277 352.68 300.152C354.182 299.602 355.838 299.649 357.299 300.282C358.76 300.915 359.912 302.086 360.513 303.548Z" fill="#E6E6E6"/>
<path d="M309.856 312.111L298.111 316.622C296.87 317.099 295.853 318.021 295.266 319.204C294.678 320.386 294.562 321.742 294.941 323L303.842 352.539C304.217 353.783 305.049 354.841 306.175 355.505C307.302 356.169 308.64 356.391 309.929 356.127L321.282 353.83" fill="#E6E6E6"/>
<g opacity="0.25">
<path d="M309.856 312.111L298.111 316.622C296.87 317.099 295.853 318.021 295.266 319.204C294.678 320.386 294.562 321.742 294.941 323L303.842 352.539C304.217 353.783 305.049 354.841 306.175 355.505C307.302 356.169 308.64 356.391 309.929 356.127L321.282 353.83" fill="#371A45"/>
</g>
<path d="M325.119 355.373C324.289 355.595 323.457 355.812 322.622 356.023C320.462 356.571 318.177 356.269 316.248 355.181C314.319 354.093 312.898 352.303 312.284 350.189L303.469 320.369C303.141 319.261 303.045 318.098 303.186 316.949C303.328 315.8 303.703 314.69 304.291 313.687C304.879 312.683 305.666 311.807 306.604 311.112C307.543 310.417 308.614 309.917 309.751 309.643C320.764 306.99 340.875 301.931 351.834 297.898C353.928 297.124 356.239 297.184 358.278 298.066C360.317 298.948 361.924 300.583 362.759 302.624L373.079 327.567C373.895 329.558 373.921 331.785 373.151 333.804C372.381 335.824 370.871 337.486 368.923 338.46C360.277 342.748 343.389 350.478 325.119 355.373ZM310.78 314.343C310.295 314.473 309.842 314.697 309.445 315.003C309.049 315.309 308.718 315.69 308.472 316.123C308.226 316.557 308.07 317.034 308.012 317.527C307.955 318.02 307.998 318.518 308.139 318.993L316.953 348.813C317.22 349.733 317.838 350.513 318.677 350.987C319.515 351.462 320.51 351.595 321.451 351.359C340.213 346.629 357.902 338.556 366.772 334.16C367.621 333.735 368.279 333.01 368.614 332.13C368.949 331.25 368.937 330.279 368.581 329.411L358.261 304.47C357.9 303.58 357.202 302.867 356.314 302.482C355.427 302.097 354.421 302.07 353.51 302.406C342.311 306.525 321.991 311.638 310.876 314.318L310.78 314.344L310.78 314.343Z" fill="#196899"/>
<path d="M321.899 356.149C321.848 356.163 321.799 356.176 321.748 356.19L310.396 358.487C308.513 358.877 306.555 358.555 304.91 357.583C303.264 356.612 302.052 355.062 301.512 353.241L292.61 323.702C292.064 321.864 292.237 319.886 293.096 318.16C293.954 316.433 295.434 315.085 297.244 314.382L308.989 309.87C309.287 309.755 309.605 309.7 309.924 309.707C310.243 309.714 310.558 309.783 310.849 309.91C311.141 310.037 311.404 310.22 311.623 310.448C311.843 310.676 312.014 310.945 312.128 311.24C312.242 311.534 312.296 311.848 312.287 312.164C312.278 312.48 312.207 312.792 312.076 313.081C311.946 313.37 311.759 313.631 311.527 313.85C311.295 314.068 311.022 314.24 310.724 314.354L298.98 318.865C298.313 319.124 297.768 319.622 297.452 320.258C297.136 320.894 297.072 321.623 297.273 322.301L306.174 351.84C306.373 352.511 306.82 353.082 307.426 353.44C308.033 353.798 308.754 353.917 309.448 353.774L320.8 351.476C321.418 351.355 322.058 351.475 322.585 351.81C323.113 352.146 323.487 352.672 323.63 353.277C323.772 353.882 323.672 354.519 323.35 355.056C323.028 355.593 322.51 355.986 321.903 356.154L321.899 356.149Z" fill="#196899"/>
<path d="M347.113 348.3C346.514 348.461 345.876 348.389 345.331 348.099C344.787 347.809 344.376 347.324 344.182 346.742L339.207 331.769L330.015 328.663C329.665 328.545 329.348 328.349 329.088 328.091C328.827 327.833 328.63 327.519 328.51 327.174L322.325 309.193C322.118 308.59 322.161 307.928 322.447 307.354C322.732 306.78 323.235 306.34 323.846 306.132C324.457 305.923 325.125 305.962 325.704 306.241C326.282 306.519 326.724 307.014 326.931 307.617L332.734 324.487L341.942 327.6C342.295 327.719 342.616 327.917 342.878 328.18C343.14 328.442 343.337 328.761 343.454 329.112L348.804 345.213C348.903 345.513 348.942 345.829 348.918 346.145C348.894 346.46 348.808 346.768 348.663 347.05C348.519 347.333 348.32 347.586 348.078 347.793C347.836 348 347.555 348.159 347.251 348.259C347.206 348.274 347.16 348.288 347.113 348.3Z" fill="#371A45"/>
<path d="M362.477 317.906C362.821 318.801 364.321 326.515 364.321 326.515L359.153 328.485C355.596 329.84 351.313 327.31 349.588 322.819C347.863 318.327 349.353 313.596 352.912 312.239L358.081 310.269C358.081 310.269 361.911 316.449 362.477 317.906Z" fill="#22A7F0"/>
<path d="M362.475 317.906C362.821 318.801 364.329 326.513 364.329 326.513L364.158 326.577C363.713 324.354 363.158 321.721 362.96 321.223C362.403 319.763 358.568 313.587 358.568 313.587L353.4 315.557C350.912 316.502 349.434 319.106 349.355 322.119C348.027 317.85 349.542 313.523 352.919 312.238L358.089 310.268C358.089 310.268 361.911 316.449 362.475 317.906Z" fill="#E6E6E6"/>
<path d="M359.148 330.631C354.698 331.823 349.669 328.795 347.656 323.555C345.531 318.02 347.561 312.093 352.179 310.333L355.788 308.958C356.679 308.616 357.662 308.595 358.563 308.898C359.464 309.201 360.227 309.809 360.718 310.615C363.894 315.83 364.281 316.836 364.407 317.167C364.511 317.437 364.748 318.055 366.025 324.469C366.212 325.4 366.059 326.369 365.592 327.203C365.125 328.037 364.375 328.682 363.476 329.023L359.886 330.391C359.645 330.484 359.398 330.564 359.148 330.631ZM357.203 312.785L353.646 314.142C351.2 315.074 350.227 318.707 351.521 322.077C352.814 325.447 355.978 327.496 358.422 326.574L361.96 325.224C361.116 320.946 360.665 319 360.54 318.624C360.342 318.131 359.366 316.342 357.203 312.785Z" fill="#196899"/>
<path d="M364.325 326.5C367.884 325.143 369.372 320.407 367.649 315.921C365.926 311.435 361.644 308.898 358.085 310.255C354.526 311.611 353.038 316.348 354.761 320.834C356.485 325.32 360.767 327.857 364.325 326.5Z" fill="#43BBD6"/>
<path d="M367.645 315.943C367.85 316.474 368.011 317.02 368.128 317.577C366.109 314.081 362.436 312.272 359.309 313.461C356.183 314.65 354.651 318.46 355.502 322.41C355.212 321.912 354.963 321.391 354.757 320.853C353.034 316.368 354.525 311.631 358.086 310.282C361.648 308.933 365.92 311.451 367.645 315.943Z" fill="#E6E6E6"/>
<path d="M364.296 328.668C362.173 329.237 359.889 328.878 357.78 327.628C355.581 326.325 353.821 324.179 352.824 321.585C351.828 318.992 351.702 316.228 352.465 313.79C353.286 311.177 355.018 309.251 357.343 308.364C359.669 307.477 362.254 307.758 364.615 309.158C366.816 310.461 368.576 312.607 369.571 315.202C370.567 317.796 370.694 320.56 369.931 322.998C369.111 325.61 367.378 327.537 365.052 328.424C364.804 328.518 364.552 328.599 364.296 328.668ZM359.145 312.068C359.033 312.098 358.922 312.134 358.814 312.176C357.699 312.6 356.846 313.597 356.411 314.981C355.926 316.543 356.016 318.362 356.69 320.117C357.364 321.873 358.509 323.286 359.921 324.122C361.175 324.864 362.478 325.041 363.589 324.613C364.701 324.186 365.558 323.193 365.992 321.809C366.478 320.248 366.386 318.428 365.713 316.672C365.042 314.927 363.895 313.504 362.481 312.668C361.352 311.998 360.182 311.79 359.145 312.068Z" fill="#196899"/>
<path d="M247.064 340.182C247.064 340.182 264.864 343.029 302.34 331.613C302.34 331.613 311.025 336.314 305.549 343.587C300.072 350.86 261.916 364.425 248.525 356.116C240.047 350.855 247.064 340.182 247.064 340.182Z" fill="#E6E6E6"/>
<g opacity="0.25">
<path d="M305.548 343.59C300.075 350.864 261.917 364.422 248.522 356.114C244.493 353.62 243.964 349.891 244.528 346.669C245.085 347.231 245.708 347.724 246.384 348.139C259.779 356.447 297.936 342.881 303.411 335.613C303.936 334.93 304.368 334.181 304.697 333.388C306.789 335.386 309.026 338.966 305.548 343.59Z" fill="#196899"/>
</g>
<path d="M280.035 358.18C271.204 360.546 255.797 363.483 247.224 358.158C244.51 356.469 242.804 354.156 242.172 351.28C240.861 345.311 244.857 339.14 245.031 338.879L245.901 337.556L247.465 337.807C247.734 337.847 265.428 340.348 301.64 329.314L302.623 329.015L303.52 329.501C304.036 329.781 308.59 332.364 309.606 337.022C310.006 338.862 309.967 341.744 307.502 345.016C303.834 349.892 291.007 355.173 280.649 358.018L280.035 358.18ZM248.399 342.748C247.553 344.431 246.322 347.511 246.929 350.245C247.282 351.833 248.23 353.086 249.827 354.077C262.092 361.689 298.978 348.297 303.601 342.158C304.712 340.68 305.121 339.34 304.843 338.063C304.484 336.408 302.996 335.006 301.956 334.241C271.141 343.5 253.714 343.171 248.398 342.746L248.399 342.748Z" fill="#196899"/>
<g opacity="0.25">
<path d="M397.972 358.852C394.099 367.17 377.599 378.618 366.14 375.168C356.571 372.292 354.362 365.089 347.421 362.465C347.017 362.313 345.873 362.146 344.128 361.888C361.017 351.21 377.113 343.809 392.03 338.779C400.7 344.983 401.177 351.959 397.972 358.852Z" fill="#196899"/>
</g>
<path d="M295.602 294.15C322.992 314.006 361.134 320.459 386.276 333.106C400.056 340.038 399.583 345.276 395.811 353.392C391.943 361.712 380.337 371.85 368.88 368.401C359.309 365.52 357.504 360.829 350.566 358.203C347.827 357.167 308.317 357.384 279.368 331.328" fill="#E6E6E6"/>
<g opacity="0.25">
<path d="M395.811 353.397C391.945 361.714 380.338 371.851 368.88 368.402C359.31 365.524 357.505 360.835 350.562 358.206C347.83 357.169 308.317 357.389 279.368 331.328L279.649 330.689C308.867 348.297 333.074 343.334 352.122 351.122C358.986 353.928 359.867 355.233 369.438 358.11C380.895 361.56 392.501 351.422 396.367 343.106C396.618 342.572 396.85 342.052 397.063 341.545C399.026 345.128 397.947 348.8 395.811 353.397Z" fill="#196899"/>
</g>
<path d="M296.148 293.419C301.337 295.295 305.872 297.792 310.619 300.077C315.307 302.423 320.077 304.658 324.88 306.866C329.734 308.99 334.682 310.898 339.706 312.682C344.715 314.498 349.784 316.21 354.854 317.947C359.924 319.684 365.027 321.408 370.096 323.306C371.367 323.761 372.633 324.245 373.894 324.747C375.155 325.249 376.418 325.726 377.68 326.24C380.184 327.314 382.705 328.338 385.166 329.554C387.713 330.708 390.179 332.031 392.545 333.512C393.145 333.922 393.747 334.316 394.34 334.742C394.919 335.213 395.515 335.651 396.085 336.152L396.926 336.953L397.343 337.356C397.477 337.501 397.605 337.661 397.737 337.814L398.511 338.744C398.751 339.077 398.973 339.446 399.201 339.799C400.068 341.236 400.729 342.993 400.802 344.75C400.887 346.393 400.689 348.04 400.216 349.621C399.797 351.023 399.28 352.394 398.668 353.726C398.402 354.357 398.058 355.027 397.709 355.697C397.359 356.367 396.965 356.983 396.583 357.618C394.999 360.071 393.098 362.31 390.929 364.278C388.759 366.275 386.318 367.961 383.677 369.288C381.003 370.612 378.033 371.545 374.913 371.751L373.741 371.794C373.35 371.822 372.958 371.815 372.568 371.774C371.791 371.684 370.997 371.671 370.235 371.505C369.473 371.34 368.689 371.166 367.952 370.969C367.266 370.738 366.575 370.535 365.895 370.274C364.519 369.769 363.181 369.172 361.888 368.487C360.609 367.8 359.375 367.034 358.193 366.194C355.871 364.549 353.928 362.898 351.875 361.81C351.623 361.658 351.351 361.546 351.094 361.414C350.836 361.279 350.57 361.158 350.299 361.05L349.894 360.883L349.692 360.799L349.591 360.756C349.593 360.763 349.545 360.736 349.591 360.756C349.608 360.767 349.627 360.772 349.647 360.772L349.49 360.749C349.364 360.731 349.268 360.709 349.102 360.691C347.89 360.539 346.51 360.414 345.175 360.275C342.476 359.996 339.76 359.671 337.057 359.271C326.243 357.676 315.533 354.953 305.398 350.703C302.857 349.661 300.373 348.476 297.914 347.254C295.478 345.982 292.998 344.776 290.633 343.356C289.437 342.667 288.283 341.91 287.176 341.089C286.617 340.691 286.057 340.287 285.532 339.836C285.007 339.386 284.468 338.96 283.952 338.503C282.923 337.575 281.964 336.575 281.082 335.511C280.193 334.415 279.414 333.237 278.754 331.993C278.665 331.822 278.631 331.629 278.655 331.438C278.679 331.246 278.76 331.066 278.887 330.92C279.015 330.774 279.183 330.669 279.371 330.617C279.559 330.566 279.758 330.571 279.942 330.633L279.995 330.65C281.365 331.109 282.547 331.736 283.748 332.339C284.948 332.942 286.061 333.619 287.195 334.272C287.757 334.602 288.306 334.948 288.85 335.299C289.393 335.651 289.958 335.976 290.502 336.328C291.045 336.679 291.591 337.017 292.14 337.378C292.689 337.738 293.238 338.065 293.778 338.428C295.938 339.869 298.173 341.199 300.472 342.411C302.799 343.582 305.156 344.697 307.575 345.69C317.214 349.733 327.476 352.352 337.908 353.889C340.52 354.275 343.14 354.589 345.787 354.863C347.124 355.004 348.419 355.119 349.876 355.298C350.044 355.316 350.278 355.356 350.484 355.389C350.6 355.41 350.673 355.417 350.824 355.447C351.005 355.489 351.187 355.537 351.366 355.59C351.443 355.614 351.574 355.652 351.603 355.667L351.735 355.721L351.997 355.829L352.521 356.046C353.216 356.34 353.897 356.668 354.559 357.029C357.239 358.473 359.378 360.323 361.419 361.75C363.397 363.173 365.564 364.322 367.858 365.166C368.428 365.387 369.029 365.558 369.612 365.758L371.247 366.14C371.792 366.261 372.357 366.251 372.908 366.324C373.187 366.36 373.469 366.365 373.749 366.338L374.592 366.307C376.845 366.15 379.116 365.47 381.253 364.411C385.523 362.277 389.33 358.761 391.945 354.719C392.248 354.206 392.601 353.708 392.846 353.18C393.091 352.653 393.386 352.142 393.64 351.548C394.146 350.453 394.575 349.324 394.925 348.171C395.228 347.195 395.362 346.176 395.323 345.158C395.297 344.242 394.967 343.438 394.488 342.605C393.483 340.952 391.622 339.394 389.538 338.073C387.369 336.721 385.11 335.514 382.776 334.461C380.438 333.3 377.989 332.308 375.571 331.271C374.35 330.77 373.109 330.301 371.879 329.815C370.65 329.328 369.413 328.853 368.16 328.404C363.189 326.542 358.117 324.841 353.055 323.093C347.993 321.344 342.89 319.637 337.816 317.795C332.733 315.997 327.703 313.998 322.643 312.033C317.625 309.967 312.593 307.842 307.892 305.045C303.116 302.414 298.671 299.08 295.078 294.871C294.944 294.714 294.867 294.518 294.859 294.312C294.85 294.107 294.91 293.904 295.03 293.735C295.149 293.565 295.322 293.44 295.521 293.377C295.719 293.315 295.933 293.319 296.128 293.388L296.148 293.419Z" fill="#196899"/>
<path d="M313.037 352.821C312.681 352.915 312.308 352.929 311.947 352.861C311.586 352.792 311.246 352.644 310.952 352.426C310.658 352.209 310.418 351.928 310.25 351.605C310.082 351.282 309.99 350.925 309.982 350.561C309.954 349.179 309.569 316.834 330.922 311.112L331.269 311.019C331.895 310.861 332.557 310.956 333.11 311.282C333.662 311.608 334.06 312.138 334.215 312.756C334.37 313.375 334.271 314.03 333.938 314.579C333.605 315.127 333.066 315.524 332.44 315.681L332.174 315.753C314.457 320.5 314.836 350.135 314.841 350.436C314.852 350.974 314.68 351.502 314.353 351.934C314.026 352.366 313.563 352.679 313.037 352.821Z" fill="#196899"/>
<path d="M387.245 281.507C386.842 281.615 386.419 281.618 386.016 281.518C372.398 278.117 363.053 246.7 362.03 243.125C361.854 242.512 361.933 241.854 362.247 241.295C362.562 240.736 363.088 240.322 363.708 240.144L363.749 240.133C364.366 239.968 365.021 240.049 365.575 240.359C366.129 240.668 366.536 241.181 366.71 241.786C369.277 250.753 377.966 274.533 387.232 276.845C387.753 276.976 388.214 277.273 388.543 277.692C388.873 278.11 389.052 278.626 389.054 279.158C389.055 279.69 388.878 280.208 388.55 280.632C388.223 281.056 387.763 281.362 387.243 281.501L387.245 281.507Z" fill="#196899"/>
<path d="M390.793 216.893C390.855 217.026 390.94 217.301 391.015 217.518L391.25 218.217C391.42 218.685 391.566 219.165 391.745 219.636C392.071 220.591 392.455 221.53 392.858 222.473C393.262 223.416 393.728 224.341 394.196 225.31C394.632 226.318 395.173 227.269 395.637 228.483C394.395 228.261 393.22 227.766 392.199 227.035C391.692 226.681 391.216 226.286 390.775 225.855C390.344 225.415 389.937 224.954 389.555 224.472C388.787 223.508 388.134 222.459 387.61 221.345C387.35 220.785 387.125 220.209 386.935 219.622C386.842 219.325 386.75 219.028 386.684 218.718C386.604 218.387 386.543 218.052 386.502 217.714C386.436 217.204 386.558 216.685 386.846 216.254C387.133 215.823 387.567 215.507 388.069 215.365C388.57 215.223 389.105 215.264 389.577 215.48C390.048 215.696 390.424 216.073 390.636 216.542L390.793 216.893Z" fill="#196899"/>
</svg>
